<svg width="400" height="400" viewBox="0 0 400 400" fill="none" xmlns="http://www.w3.org/2000/svg">
<g clip-path="url(#clip0_25_4)">
<path opacity="0.4" d="M120.01 189.87L116.015 185.875C115.525 185.385 114.73 185.385 114.24 185.875L112.985 187.13C112.495 187.62 112.495 188.415 112.985 188.905L113.505 189.425L112.94 189.99C112.51 190.42 112.46 191.085 112.785 191.575L110.63 193.73C105.975 188.985 99.615 185.92 92.535 185.545V184.04C93.6549 184.04 94.5649 183.13 94.5649 182.01V180.715H95.41C96.5299 180.715 97.4399 179.805 97.4399 178.685V175.81C97.4399 174.69 96.5299 173.78 95.41 173.78H86.2799C85.1599 173.78 84.2499 174.69 84.2499 175.81V178.685C84.2499 179.805 85.1599 180.715 86.2799 180.715H87.4649V182.01C87.4649 182.995 88.1699 183.815 89.0999 184V185.585C82.1599 186.08 75.9349 189.155 71.3849 193.865L69.0999 191.58C69.4249 191.09 69.3749 190.425 68.9449 189.995L68.3799 189.43L68.8999 188.91C69.3899 188.42 69.3899 187.625 68.8999 187.135L67.6449 185.88C67.1549 185.39 66.3599 185.39 65.8699 185.88L61.8749 189.875C61.3849 190.365 61.3849 191.16 61.8749 191.65L63.1299 192.905C63.6199 193.395 64.4149 193.395 64.9049 192.905L65.2749 192.535L65.8399 193.1C66.3299 193.59 67.1249 193.59 67.6149 193.1L69.9599 195.445C66.0349 200.185 63.6749 206.27 63.6749 212.905C63.6749 228.035 75.9399 240.3 91.0699 240.3C106.2 240.3 118.465 228.035 118.465 212.905C118.465 205.93 115.855 199.57 111.565 194.735L112.1 195.27L114.27 193.1C114.76 193.59 115.555 193.59 116.045 193.1L116.61 192.535L116.98 192.905C117.47 193.395 118.265 193.395 118.755 192.905L120.01 191.65C120.5 191.155 120.5 190.36 120.01 189.87Z" fill="#87888A"/>
<path d="M285.53 129.34C279.205 129.34 274.03 125.215 274.03 120.175C274.03 115.135 277.49 111.01 281.725 111.01C285.955 111.01 289.42 106.855 289.42 101.78C289.42 96.705 284.245 92.55 277.92 92.55H239.29C232.965 92.55 227.79 88.395 227.79 83.32C227.79 78.245 222.615 74.09 216.29 74.09H202.71C196.385 74.09 191.21 69.935 191.21 64.86C191.21 59.785 186.035 55.63 179.71 55.63H129.44C123.115 55.63 117.94 59.785 117.94 64.86C117.94 69.935 112.765 74.09 106.44 74.09H87.1C80.775 74.09 75.6 78.245 75.6 83.32C75.6 88.395 80.775 92.55 87.1 92.55H109.56C115.885 92.55 121.06 96.68 121.06 101.73C121.06 106.78 115.945 110.91 109.695 110.91C103.445 110.91 98.33 115.055 98.33 120.125C98.33 125.195 93.215 129.34 86.965 129.34C80.715 129.34 75.6 133.495 75.6 138.57C75.6 143.645 80.775 147.8 87.1 147.8H302.635C308.96 147.8 314.135 143.645 314.135 138.57C314.135 133.495 308.96 129.34 302.635 129.34H285.53ZM153.28 83.06C153.3 87.52 148.14 91.17 141.815 91.17H138.435C132.11 91.17 126.935 87.485 126.935 82.985C126.935 78.485 132.11 74.83 138.435 74.865L141.745 74.885C148.07 74.92 153.26 78.6 153.28 83.06Z" fill="#29ABE2"/>
<path d="M120.63 291.355C114.58 291.355 109.63 296.305 109.63 302.355V303.23C109.63 309.28 104.68 314.23 98.63 314.23H94.355C88.305 314.23 83.355 319.18 83.355 325.23V326.105C83.355 332.155 88.305 337.105 94.355 337.105H229.605C235.655 337.105 240.605 332.155 240.605 326.105V325.23C240.605 319.18 245.555 314.23 251.605 314.23H289.835C295.885 314.23 300.835 309.28 300.835 303.23V302.355C300.835 296.305 305.785 291.355 311.835 291.355H332.51C338.56 291.355 343.51 286.405 343.51 280.355V279.48C343.51 273.43 338.56 268.48 332.51 268.48H321.995C315.945 268.48 310.995 263.53 310.995 257.48V256.73C310.995 250.68 306.045 245.73 299.995 245.73H108.615C102.565 245.73 97.615 250.68 97.615 256.73V257.605C97.615 263.655 102.565 268.605 108.615 268.605H125.77C131.82 268.605 136.77 273.555 136.77 279.605V280.355C136.77 286.405 131.82 291.355 125.77 291.355H120.63Z" fill="#29ABE2"/>
<path d="M361.195 70.485C361.195 69.125 359.955 68.01 358.445 68.01C356.935 68.01 355.695 66.77 355.695 65.26C355.695 63.745 354.58 62.51 353.22 62.51C351.86 62.51 350.745 63.75 350.745 65.26C350.745 66.775 349.505 68.01 347.995 68.01C346.485 68.01 345.245 69.125 345.245 70.485C345.245 71.845 346.485 72.96 347.995 72.96C349.505 72.96 350.745 74.2 350.745 75.71C350.745 77.22 351.86 78.46 353.22 78.46C354.58 78.46 355.695 77.22 355.695 75.71C355.695 74.2 356.935 72.96 358.445 72.96C359.955 72.96 361.195 71.845 361.195 70.485Z" fill="#39B54A"/>
<path d="M88.5749 359.09C88.5749 357.98 87.5649 357.07 86.3299 357.07C85.0949 357.07 84.0849 356.06 84.0849 354.825C84.0849 353.59 83.1749 352.58 82.0649 352.58C80.9549 352.58 80.0449 353.59 80.0449 354.825C80.0449 356.06 79.0349 357.07 77.7999 357.07C76.5649 357.07 75.5549 357.98 75.5549 359.09C75.5549 360.2 76.5649 361.11 77.7999 361.11C79.0349 361.11 80.0449 362.12 80.0449 363.355C80.0449 364.59 80.9549 365.6 82.0649 365.6C83.1749 365.6 84.0849 364.59 84.0849 363.355C84.0849 362.12 85.0949 361.11 86.3299 361.11C87.5649 361.11 88.5749 360.2 88.5749 359.09Z" fill="#39B54A"/>
<path d="M51.7 42.955C52.8 43.11 53.84 42.24 54.015 41.015C54.19 39.795 55.33 38.935 56.555 39.11C57.775 39.285 58.905 38.525 59.06 37.425C59.215 36.325 58.345 35.285 57.12 35.11C55.9 34.935 55.04 33.795 55.215 32.57C55.39 31.35 54.63 30.22 53.53 30.065C52.43 29.91 51.39 30.78 51.215 32.005C51.04 33.225 49.9 34.085 48.675 33.91C47.455 33.735 46.325 34.495 46.17 35.595C46.015 36.695 46.885 37.735 48.11 37.91C49.335 38.085 50.19 39.225 50.015 40.45C49.845 41.67 50.6 42.8 51.7 42.955Z" fill="#39B54A"/>
<path d="M348.795 378.99C349.375 378.04 348.985 376.74 347.93 376.095C346.875 375.45 346.54 374.065 347.18 373.01C347.825 371.955 347.575 370.62 346.625 370.04C345.675 369.46 344.375 369.85 343.73 370.905C343.085 371.96 341.7 372.295 340.645 371.65C339.59 371.005 338.255 371.255 337.675 372.205C337.095 373.155 337.485 374.455 338.54 375.1C339.595 375.745 339.93 377.13 339.29 378.185C338.645 379.24 338.895 380.575 339.845 381.155C340.795 381.735 342.095 381.345 342.74 380.29C343.385 379.235 344.77 378.9 345.825 379.54C346.88 380.19 348.215 379.94 348.795 378.99Z" fill="#39B54A"/>
<path d="M25.54 165.195C29.2983 165.195 32.345 162.148 32.345 158.39C32.345 154.632 29.2983 151.585 25.54 151.585C21.7817 151.585 18.735 154.632 18.735 158.39C18.735 162.148 21.7817 165.195 25.54 165.195Z" fill="#39B54A"/>
<path opacity="0.4" d="M266.434 141.029L216.476 257.222L311.281 297.984L361.239 181.791L266.434 141.029Z" fill="#B2B3B5"/>
<path opacity="0.4" d="M265.285 129.515H241.34C240.705 126.57 238.09 124.36 234.955 124.36H214.64C213.205 120.51 209.505 117.76 205.155 117.76C200.805 117.76 197.105 120.51 195.67 124.36H175.355C172.22 124.36 169.605 126.57 168.97 129.515H145.025C142.59 129.515 140.61 131.425 140.61 133.78V133.93V284.12V289.56C140.61 291.995 142.585 293.975 145.025 293.975H265.275C267.71 293.975 269.69 292 269.69 289.56V284.12V133.93V133.78C269.7 131.425 267.72 129.515 265.285 129.515Z" fill="#B2B3B5"/>
<path d="M262.688 135.224L212.73 251.417L307.535 292.179L357.493 175.986L262.688 135.224Z" fill="white"/>
<path d="M333.69 190.215C333.505 190.65 332.935 190.83 332.43 190.61L269.34 163.48C268.835 163.265 268.575 162.73 268.76 162.295C268.945 161.86 269.515 161.68 270.02 161.9L333.11 189.03C333.615 189.245 333.875 189.78 333.69 190.215Z" fill="#ECECF0"/>
<path d="M310.2 183.525C310.015 183.96 309.445 184.14 308.94 183.92L268.1 166.36C267.595 166.145 267.335 165.61 267.52 165.175C267.705 164.74 268.275 164.56 268.78 164.78L309.62 182.34C310.125 182.56 310.385 183.09 310.2 183.525Z" fill="#ECECF0"/>
<path d="M298.73 182.06C298.545 182.495 297.975 182.675 297.47 182.455L266.845 169.285C266.34 169.07 266.08 168.535 266.265 168.1C266.45 167.665 267.02 167.485 267.525 167.705L298.15 180.875C298.655 181.09 298.915 181.625 298.73 182.06Z" fill="#ECECF0"/>
<path d="M327.565 204.46C327.38 204.895 326.81 205.075 326.305 204.855L263.215 177.725C262.71 177.51 262.45 176.975 262.635 176.54C262.82 176.105 263.39 175.925 263.895 176.145L326.985 203.275C327.49 203.49 327.75 204.025 327.565 204.46Z" fill="#ECECF0"/>
<path d="M304.075 197.77C303.89 198.205 303.32 198.385 302.815 198.165L261.975 180.605C261.47 180.39 261.21 179.855 261.395 179.42C261.58 178.985 262.15 178.805 262.655 179.025L303.495 196.585C304 196.805 304.26 197.335 304.075 197.77Z" fill="#ECECF0"/>
<path d="M292.605 196.305C292.42 196.74 291.85 196.92 291.345 196.7L260.72 183.53C260.215 183.315 259.955 182.78 260.14 182.345C260.325 181.91 260.895 181.73 261.4 181.95L292.025 195.12C292.53 195.34 292.79 195.87 292.605 196.305Z" fill="#ECECF0"/>
<path d="M320.45 221C320.265 221.435 319.695 221.615 319.19 221.395L256.1 194.265C255.595 194.05 255.335 193.515 255.52 193.08C255.705 192.645 256.275 192.465 256.78 192.685L319.87 219.815C320.38 220.035 320.64 220.565 320.45 221Z" fill="#ECECF0"/>
<path d="M296.96 214.315C296.775 214.75 296.205 214.93 295.7 214.71L254.86 197.15C254.355 196.935 254.095 196.4 254.28 195.965C254.465 195.53 255.035 195.35 255.54 195.57L296.38 213.13C296.89 213.345 297.15 213.88 296.96 214.315Z" fill="#ECECF0"/>
<path d="M285.49 212.85C285.305 213.285 284.735 213.465 284.23 213.245L253.605 200.075C253.1 199.86 252.84 199.325 253.025 198.89C253.21 198.455 253.78 198.275 254.285 198.495L284.91 211.665C285.42 211.88 285.68 212.415 285.49 212.85Z" fill="#ECECF0"/>
<path d="M304.96 257.025C304.775 257.46 304.205 257.64 303.7 257.42L240.61 230.29C240.105 230.075 239.845 229.54 240.03 229.105C240.215 228.67 240.785 228.49 241.29 228.71L304.38 255.84C304.89 256.055 305.15 256.59 304.96 257.025Z" fill="#ECECF0"/>
<path d="M281.47 250.335C281.285 250.77 280.715 250.95 280.21 250.73L239.37 233.17C238.865 232.955 238.605 232.42 238.79 231.985C238.975 231.55 239.545 231.37 240.05 231.59L280.89 249.15C281.4 249.365 281.66 249.9 281.47 250.335Z" fill="#ECECF0"/>
<path d="M270 248.87C269.815 249.305 269.245 249.485 268.74 249.265L238.115 236.095C237.61 235.88 237.35 235.345 237.535 234.91C237.72 234.475 238.29 234.295 238.795 234.515L269.42 247.685C269.93 247.9 270.19 248.435 270 248.87Z" fill="#ECECF0"/>
<path d="M314.38 235.12C314.195 235.555 313.625 235.735 313.12 235.515L250.03 208.385C249.525 208.17 249.265 207.635 249.45 207.2C249.635 206.765 250.205 206.585 250.71 206.805L313.8 233.935C314.31 234.15 314.57 234.685 314.38 235.12Z" fill="#ECECF0"/>
<path d="M290.89 228.43C290.705 228.865 290.135 229.045 289.63 228.825L248.79 211.265C248.285 211.05 248.025 210.515 248.21 210.08C248.395 209.645 248.965 209.465 249.47 209.685L290.31 227.245C290.815 227.46 291.08 227.995 290.89 228.43Z" fill="#ECECF0"/>
<path d="M286.985 237.52C286.8 237.955 286.23 238.135 285.725 237.915L244.885 220.355C244.38 220.14 244.12 219.605 244.305 219.17C244.49 218.735 245.06 218.555 245.565 218.775L286.405 236.335C286.91 236.55 287.17 237.085 286.985 237.52Z" fill="#ECECF0"/>
<path d="M279.42 226.965C279.235 227.4 278.665 227.58 278.16 227.36L247.535 214.19C247.03 213.975 246.77 213.44 246.955 213.005C247.14 212.57 247.71 212.39 248.215 212.61L278.84 225.78C279.345 225.995 279.61 226.53 279.42 226.965Z" fill="#ECECF0"/>
<path d="M272.555 227.655C272.37 228.09 271.8 228.27 271.295 228.05L246.21 217.265C245.705 217.05 245.445 216.515 245.63 216.08C245.815 215.645 246.385 215.465 246.89 215.685L271.975 226.47C272.485 226.69 272.745 227.22 272.555 227.655Z" fill="#ECECF0"/>
<path d="M325.005 198.07C324.955 198.07 324.9 198.06 324.855 198.04C324.75 197.995 324.67 197.9 324.645 197.785L323.545 193.18C323.5 193 323.595 192.815 323.765 192.745C323.81 192.725 323.86 192.715 323.91 192.715C324.035 192.715 324.16 192.78 324.23 192.895L325.855 195.565L331.84 193.545C331.88 193.53 331.92 193.525 331.96 193.525C332.105 193.525 332.24 193.61 332.305 193.75C332.385 193.93 332.31 194.135 332.14 194.23L325.19 198.02C325.13 198.055 325.07 198.07 325.005 198.07Z" fill="#88BA34"/>
<path d="M323.91 193.09L325.69 196.02L331.96 193.905L325.01 197.695L323.91 193.09ZM323.91 192.34C323.815 192.34 323.72 192.36 323.625 192.395C323.285 192.535 323.095 192.905 323.18 193.265L324.28 197.87C324.335 198.095 324.49 198.285 324.705 198.38C324.8 198.425 324.905 198.445 325.01 198.445C325.135 198.445 325.26 198.415 325.37 198.355L332.3 194.575C332.545 194.45 332.71 194.2 332.71 193.905C332.71 193.505 332.395 193.175 331.995 193.155C331.98 193.155 331.97 193.155 331.955 193.155C331.92 193.155 331.88 193.16 331.845 193.165C331.795 193.17 331.745 193.185 331.7 193.2L326.02 195.12L324.55 192.705C324.41 192.475 324.165 192.34 323.91 192.34Z" fill="#88BA34"/>
<path d="M296.72 263.85C296.67 263.85 296.615 263.84 296.57 263.82C296.465 263.775 296.385 263.68 296.36 263.565L295.26 258.96C295.215 258.78 295.31 258.595 295.48 258.525C295.525 258.505 295.575 258.495 295.625 258.495C295.75 258.495 295.875 258.56 295.945 258.675L297.57 261.345L303.555 259.325C303.595 259.31 303.635 259.305 303.675 259.305C303.82 259.305 303.955 259.39 304.02 259.53C304.1 259.71 304.025 259.915 303.855 260.01L296.905 263.8C296.845 263.835 296.785 263.85 296.72 263.85Z" fill="#88BA34"/>
<path d="M295.62 258.875L297.4 261.805L303.67 259.69L296.72 263.48L295.62 258.875ZM295.62 258.125C295.525 258.125 295.43 258.145 295.335 258.18C294.995 258.32 294.805 258.69 294.89 259.05L295.99 263.655C296.045 263.88 296.2 264.07 296.415 264.165C296.51 264.21 296.615 264.23 296.72 264.23C296.845 264.23 296.97 264.2 297.08 264.14L304.01 260.36C304.255 260.235 304.42 259.985 304.42 259.69C304.42 259.29 304.105 258.96 303.705 258.94C303.69 258.94 303.68 258.94 303.665 258.94C303.63 258.94 303.59 258.945 303.555 258.95C303.505 258.955 303.455 258.97 303.41 258.985L297.73 260.905L296.26 258.49C296.125 258.255 295.875 258.125 295.62 258.125Z" fill="#88BA34"/>
<path d="M311.405 229.7C311.355 229.7 311.3 229.69 311.255 229.67C311.15 229.625 311.07 229.53 311.045 229.415L309.945 224.81C309.9 224.63 309.995 224.445 310.165 224.375C310.21 224.355 310.26 224.345 310.31 224.345C310.435 224.345 310.56 224.41 310.63 224.525L312.255 227.195L318.24 225.175C318.28 225.16 318.32 225.155 318.36 225.155C318.505 225.155 318.64 225.24 318.705 225.38C318.785 225.56 318.71 225.765 318.54 225.86L311.59 229.65C311.53 229.685 311.465 229.7 311.405 229.7Z" fill="#88BA34"/>
<path d="M310.305 224.725L312.085 227.655L318.355 225.54L311.405 229.33L310.305 224.725ZM310.305 223.975C310.21 223.975 310.115 223.995 310.02 224.03C309.68 224.17 309.49 224.54 309.575 224.9L310.675 229.505C310.73 229.73 310.885 229.92 311.1 230.015C311.195 230.06 311.3 230.08 311.405 230.08C311.53 230.08 311.655 230.05 311.765 229.99L318.695 226.21C318.94 226.085 319.105 225.835 319.105 225.54C319.105 225.14 318.79 224.81 318.39 224.79C318.375 224.79 318.365 224.79 318.35 224.79C318.315 224.79 318.275 224.795 318.24 224.8C318.19 224.805 318.14 224.82 318.095 224.835L312.415 226.755L310.945 224.34C310.81 224.105 310.56 223.975 310.305 223.975Z" fill="#88BA34"/>
<path d="M90.815 185.68H87.375V181.285H90.815V185.68Z" fill="#B0B1B3"/>
<path d="M110.38 193.975L108.875 192.475L111.775 189.575L113.28 191.08L110.38 193.975Z" fill="#B0B1B3"/>
<path d="M68.63 194.55L70.135 193.045L66.645 189.555L65.14 191.06L68.63 194.55Z" fill="#B0B1B3"/>
<path d="M92.845 180.72C92.845 181.84 91.935 182.75 90.815 182.75H87.77C86.65 182.75 85.74 181.84 85.74 180.72V179.31C85.74 178.19 86.65 177.28 87.77 177.28H90.815C91.935 177.28 92.845 178.19 92.845 179.31V180.72Z" fill="#BDBEC0"/>
<path d="M114.325 191.81C113.835 192.3 113.04 192.3 112.55 191.81L111.22 190.48C110.73 189.99 110.73 189.195 111.22 188.705L111.835 188.09C112.325 187.6 113.12 187.6 113.61 188.09L114.94 189.42C115.43 189.91 115.43 190.705 114.94 191.195L114.325 191.81Z" fill="#BDBEC0"/>
<path d="M64.1099 191.81C64.5999 192.3 65.3949 192.3 65.8849 191.81L67.2149 190.48C67.7049 189.99 67.7049 189.195 67.2149 188.705L66.5999 188.09C66.1099 187.6 65.3149 187.6 64.8249 188.09L63.4949 189.42C63.0049 189.91 63.0049 190.705 63.4949 191.195L64.1099 191.81Z" fill="#BDBEC0"/>
<path d="M95.72 177.395C95.72 178.515 94.81 179.425 93.69 179.425H84.56C83.44 179.425 82.53 178.515 82.53 177.395V174.52C82.53 173.4 83.44 172.49 84.56 172.49H93.69C94.81 172.49 95.72 173.4 95.72 174.52V177.395Z" fill="#D1D2D4"/>
<path d="M117.04 191.61C116.55 192.1 115.755 192.1 115.265 191.61L111.27 187.615C110.78 187.125 110.78 186.33 111.27 185.84L112.525 184.585C113.015 184.095 113.81 184.095 114.3 184.585L118.295 188.58C118.785 189.07 118.785 189.865 118.295 190.355L117.04 191.61Z" fill="#D1D2D4"/>
<path d="M61.4 191.61C61.89 192.1 62.685 192.1 63.175 191.61L67.17 187.615C67.66 187.125 67.66 186.33 67.17 185.84L65.915 184.585C65.425 184.095 64.63 184.095 64.14 184.585L60.145 188.58C59.655 189.07 59.655 189.865 60.145 190.355L61.4 191.61Z" fill="#D1D2D4"/>
<path d="M99.7972 236.932C113.78 231.156 120.433 215.137 114.656 201.154C108.88 187.171 92.8614 180.519 78.8784 186.295C64.8954 192.072 58.2428 208.09 64.0193 222.073C69.7959 236.056 85.8142 242.709 99.7972 236.932Z" fill="#D1D2D4"/>
<path d="M89.35 233.33C101.343 233.33 111.065 223.608 111.065 211.615C111.065 199.622 101.343 189.9 89.35 189.9C77.3571 189.9 67.635 199.622 67.635 211.615C67.635 223.608 77.3571 233.33 89.35 233.33Z" fill="#BDBEC0"/>
<path d="M96.8094 229.154C106.492 225.032 111 213.841 106.878 204.158C102.756 194.475 91.5647 189.967 81.8817 194.089C72.1988 198.211 67.6909 209.403 71.8131 219.086C75.9353 228.769 87.1265 233.276 96.8094 229.154Z" fill="white"/>
<path d="M89.905 197.855C89.905 197.96 89.82 198.045 89.715 198.045H89.24C89.135 198.045 89.05 197.96 89.05 197.855V195.37C89.05 195.265 89.135 195.18 89.24 195.18H89.715C89.82 195.18 89.905 195.265 89.905 195.37V197.855Z" fill="#B0B1B3"/>
<path d="M89.905 227.405C89.905 227.51 89.82 227.595 89.715 227.595H89.24C89.135 227.595 89.05 227.51 89.05 227.405V224.92C89.05 224.815 89.135 224.73 89.24 224.73H89.715C89.82 224.73 89.905 224.815 89.905 224.92V227.405Z" fill="#B0B1B3"/>
<path d="M96.875 200.05C96.82 200.14 96.705 200.165 96.615 200.115L96.21 199.87C96.12 199.815 96.095 199.7 96.145 199.61L97.435 197.485C97.49 197.395 97.605 197.37 97.695 197.42L98.1 197.665C98.19 197.72 98.215 197.835 98.165 197.925L96.875 200.05Z" fill="#B0B1B3"/>
<path d="M81.515 225.295C81.46 225.385 81.345 225.41 81.255 225.36L80.85 225.115C80.76 225.06 80.735 224.945 80.785 224.855L82.075 222.73C82.13 222.64 82.245 222.615 82.335 222.665L82.74 222.91C82.83 222.965 82.855 223.08 82.805 223.17L81.515 225.295Z" fill="#B0B1B3"/>
<path d="M101.425 205.01C101.335 205.06 101.22 205.03 101.17 204.94L100.935 204.53C100.885 204.44 100.915 204.325 101.005 204.275L103.16 203.035C103.25 202.985 103.365 203.015 103.415 203.105L103.65 203.515C103.7 203.605 103.67 203.72 103.58 203.77L101.425 205.01Z" fill="#B0B1B3"/>
<path d="M75.805 219.74C75.715 219.79 75.6 219.76 75.55 219.67L75.315 219.26C75.265 219.17 75.295 219.055 75.385 219.005L77.54 217.765C77.63 217.715 77.745 217.745 77.795 217.835L78.03 218.245C78.08 218.335 78.05 218.45 77.96 218.5L75.805 219.74Z" fill="#B0B1B3"/>
<path d="M103.01 211.86C102.905 211.86 102.825 211.775 102.825 211.67V211.195C102.825 211.09 102.91 211.01 103.015 211.01L105.5 211.02C105.605 211.02 105.685 211.105 105.685 211.21V211.685C105.685 211.79 105.6 211.87 105.495 211.87L103.01 211.86Z" fill="#B0B1B3"/>
<path d="M73.46 211.76C73.355 211.76 73.275 211.675 73.275 211.57V211.095C73.275 210.99 73.36 210.91 73.465 210.91L75.95 210.92C76.055 210.92 76.135 211.005 76.135 211.11V211.585C76.135 211.69 76.05 211.77 75.945 211.77L73.46 211.76Z" fill="#B0B1B3"/>
<path d="M100.98 218.535C100.89 218.485 100.86 218.37 100.91 218.28L101.145 217.87C101.195 217.78 101.31 217.75 101.4 217.8L103.55 219.045C103.64 219.095 103.67 219.21 103.62 219.3L103.385 219.71C103.335 219.8 103.22 219.83 103.13 219.78L100.98 218.535Z" fill="#B0B1B3"/>
<path d="M75.405 203.73C75.315 203.68 75.285 203.565 75.335 203.475L75.575 203.065C75.625 202.975 75.74 202.945 75.83 202.995L77.98 204.24C78.07 204.29 78.1 204.405 78.05 204.495L77.81 204.905C77.76 204.995 77.645 205.025 77.555 204.975L75.405 203.73Z" fill="#B0B1B3"/>
<path d="M100.98 218.535C100.89 218.485 100.86 218.37 100.91 218.28L101.145 217.87C101.195 217.78 101.31 217.75 101.4 217.8L103.55 219.045C103.64 219.095 103.67 219.21 103.62 219.3L103.385 219.71C103.335 219.8 103.22 219.83 103.13 219.78L100.98 218.535Z" fill="#B0B1B3"/>
<path d="M75.405 203.73C75.315 203.68 75.285 203.565 75.335 203.475L75.575 203.065C75.625 202.975 75.74 202.945 75.83 202.995L77.98 204.24C78.07 204.29 78.1 204.405 78.05 204.495L77.81 204.905C77.76 204.995 77.645 205.025 77.555 204.975L75.405 203.73Z" fill="#B0B1B3"/>
<path d="M95.9651 223.275C95.9151 223.185 95.9401 223.07 96.0301 223.02L96.4401 222.78C96.5301 222.73 96.6451 222.755 96.6951 222.845L97.9551 224.99C98.0051 225.08 97.9801 225.195 97.8901 225.245L97.4801 225.485C97.3901 225.535 97.2751 225.505 97.2251 225.42L95.9651 223.275Z" fill="#B0B1B3"/>
<path d="M81.005 197.79C80.955 197.7 80.98 197.585 81.07 197.535L81.48 197.295C81.57 197.24 81.685 197.27 81.735 197.36L82.995 199.505C83.05 199.595 83.02 199.71 82.93 199.76L82.52 200C82.43 200.055 82.315 200.025 82.265 199.935L81.005 197.79Z" fill="#B0B1B3"/>
<path d="M90.9301 211.32C90.9301 212.01 90.3701 212.57 89.6801 212.57C88.9901 212.57 88.4301 212.01 88.4301 211.32C88.4301 210.63 88.9901 210.07 89.6801 210.07C90.3701 210.07 90.9301 210.63 90.9301 211.32Z" fill="#B0B1B3"/>
<path d="M86.24 213.6L100.365 205" stroke="#B0B1B3" stroke-miterlimit="10" stroke-linecap="round" stroke-linejoin="round"/>
<path d="M267.145 287C267.145 289.435 265.17 291.415 262.73 291.415H142.48C140.045 291.415 138.065 289.44 138.065 287V131.37C138.065 128.935 140.04 126.955 142.48 126.955H262.73C265.165 126.955 267.145 128.93 267.145 131.37V287Z" fill="#13959C"/>
<path d="M267.145 281.56C267.145 283.915 265.17 285.825 262.73 285.825H142.48C140.045 285.825 138.065 283.915 138.065 281.56V131.22C138.065 128.865 140.04 126.955 142.48 126.955H262.73C265.165 126.955 267.145 128.865 267.145 131.22V281.56Z" fill="#24B7C4"/>
<path d="M259.65 135.84H145.56V275.66H259.65V135.84Z" fill="white"/>
<path d="M238.94 128.34C238.94 124.73 236.015 121.805 232.405 121.805H172.81C169.2 121.805 166.275 124.73 166.275 128.34V139.84H238.94V128.34Z" fill="#B4B3B3"/>
<path d="M210.756 131.334C214.07 126.827 213.103 120.486 208.596 117.172C204.089 113.858 197.748 114.825 194.434 119.332C191.12 123.839 192.087 130.179 196.594 133.494C201.101 136.808 207.441 135.841 210.756 131.334Z" fill="#B4B3B3"/>
<path d="M205.71 122.23C205.71 123.945 204.32 125.335 202.605 125.335C200.89 125.335 199.5 123.945 199.5 122.23C199.5 120.515 200.89 119.125 202.605 119.125C204.32 119.13 205.71 120.52 205.71 122.23Z" fill="#EDEFC7"/>
<path d="M238.94 131.835H166.275V139.84H238.94V131.835Z" fill="#D2D2D2"/>
<path d="M239.715 166.15C239.715 166.675 239.265 167.1 238.715 167.1H162.58C162.03 167.1 161.58 166.67 161.58 166.15C161.58 165.625 162.03 165.2 162.58 165.2H238.715C239.265 165.195 239.715 165.625 239.715 166.15Z" fill="#ECECF0"/>
<path d="M212.935 169.615C212.935 170.14 212.485 170.565 211.935 170.565H162.58C162.03 170.565 161.58 170.135 161.58 169.615C161.58 169.095 162.03 168.665 162.58 168.665H211.935C212.485 168.66 212.935 169.09 212.935 169.615Z" fill="#ECECF0"/>
<path d="M200.645 173.135C200.645 173.66 200.195 174.085 199.645 174.085H162.575C162.025 174.085 161.575 173.655 161.575 173.135C161.575 172.61 162.025 172.185 162.575 172.185H199.645C200.195 172.185 200.645 172.61 200.645 173.135Z" fill="#ECECF0"/>
<path d="M240.245 190.615C240.245 191.165 239.795 191.615 239.245 191.615H179.19C178.64 191.615 178.19 191.165 178.19 190.615V189.665C178.19 189.115 178.64 188.665 179.19 188.665H239.245C239.795 188.665 240.245 189.115 240.245 189.665V190.615Z" fill="#ECECF0"/>
<path d="M240.245 205.47C240.245 206.02 239.795 206.47 239.245 206.47H179.19C178.64 206.47 178.19 206.02 178.19 205.47V204.52C178.19 203.97 178.64 203.52 179.19 203.52H239.245C239.795 203.52 240.245 203.97 240.245 204.52V205.47Z" fill="#ECECF0"/>
<path d="M240.245 220.59C240.245 221.14 239.795 221.59 239.245 221.59H179.19C178.64 221.59 178.19 221.14 178.19 220.59V219.64C178.19 219.09 178.64 218.64 179.19 218.64H239.245C239.795 218.64 240.245 219.09 240.245 219.64V220.59Z" fill="#ECECF0"/>
<path d="M240.245 234.695C240.245 235.245 239.795 235.695 239.245 235.695H179.19C178.64 235.695 178.19 235.245 178.19 234.695V233.745C178.19 233.195 178.64 232.745 179.19 232.745H239.245C239.795 232.745 240.245 233.195 240.245 233.745V234.695Z" fill="#ECECF0"/>
<path d="M172.01 184.81V194.065H162.755V184.81H172.01ZM173.19 183.635H161.58V195.245H173.19V183.635Z" fill="#ECECF0"/>
<path d="M172.01 199.86V209.115H162.755V199.86H172.01ZM173.19 198.685H161.58V210.295H173.19V198.685Z" fill="#ECECF0"/>
<path d="M172.01 214.895V224.15H162.755V214.895H172.01ZM173.19 213.72H161.58V225.33H173.19V213.72Z" fill="#ECECF0"/>
<path d="M172.01 230.12V239.375H162.755V230.12H172.01ZM173.19 228.945H161.58V240.555H173.19V228.945Z" fill="#ECECF0"/>
<path d="M167.435 192.615C167.32 192.615 167.21 192.56 167.14 192.465L163.315 187.33C163.205 187.18 163.22 186.975 163.35 186.845C163.425 186.77 163.52 186.73 163.62 186.73C163.695 186.73 163.77 186.755 163.835 186.8L167.37 189.315L173.805 183.535C173.875 183.47 173.965 183.44 174.055 183.44C174.145 183.44 174.24 183.475 174.31 183.54C174.45 183.675 174.47 183.89 174.35 184.045L167.74 192.475C167.665 192.565 167.555 192.615 167.435 192.615Z" fill="#88BA34"/>
<path d="M174.05 183.815L167.44 192.245L163.615 187.11L167.395 189.8L174.05 183.815ZM174.05 183.065C174.045 183.065 174.04 183.065 174.035 183.065C173.845 183.07 173.675 183.14 173.545 183.26L167.335 188.84L164.045 186.5C163.915 186.405 163.76 186.36 163.61 186.36C163.415 186.36 163.22 186.435 163.075 186.585C162.815 186.85 162.79 187.26 163.01 187.56L166.835 192.695C166.975 192.88 167.195 192.995 167.425 192.995C167.43 192.995 167.43 192.995 167.435 192.995C167.665 192.995 167.885 192.89 168.025 192.71L174.62 184.305C174.73 184.175 174.8 184.005 174.8 183.82C174.8 183.4 174.47 183.065 174.05 183.065Z" fill="#88BA34"/>
<path d="M167.435 206.49C167.32 206.49 167.21 206.435 167.14 206.34L163.315 201.205C163.205 201.055 163.22 200.85 163.35 200.72C163.425 200.645 163.52 200.605 163.62 200.605C163.695 200.605 163.77 200.63 163.835 200.675L167.37 203.19L173.805 197.41C173.875 197.345 173.965 197.315 174.055 197.315C174.145 197.315 174.24 197.35 174.31 197.415C174.45 197.55 174.47 197.765 174.35 197.92L167.74 206.35C167.665 206.435 167.555 206.49 167.435 206.49Z" fill="#88BA34"/>
<path d="M174.05 197.685L167.44 206.115L163.615 200.98L167.395 203.67L174.05 197.685ZM174.055 196.935C174.05 196.935 174.05 196.935 174.05 196.935C173.86 196.935 173.685 197.01 173.555 197.13L167.345 202.71L164.055 200.37C163.925 200.275 163.77 200.23 163.62 200.23C163.425 200.23 163.23 200.305 163.085 200.455C162.825 200.72 162.8 201.13 163.02 201.43L166.845 206.565C166.985 206.75 167.205 206.865 167.435 206.865C167.44 206.865 167.44 206.865 167.445 206.865C167.675 206.865 167.895 206.76 168.035 206.58L174.63 198.175C174.74 198.045 174.81 197.875 174.81 197.69C174.8 197.27 174.47 196.935 174.055 196.935Z" fill="#88BA34"/>
<path d="M145.56 241.36V275.51H162.17C161.44 275.515 146.565 258.515 145.56 241.36Z" fill="#DDDDE0"/>
<path d="M164.295 259.355C159.37 257.885 155.735 255.835 153.05 253.57C146.725 248.235 145.695 241.73 145.56 238.985V241.215C146.56 258.375 161.44 275.51 162.17 275.505C161.405 274.615 161.065 273.375 161.03 272.075C160.94 268.915 162.635 264.585 164.295 259.355Z" fill="#ECECF0"/>
<path opacity="0.4" d="M155.405 259.75L144.17 265.115L84.0799 325.445L84.0849 325.45L80.1699 329.37L80.1999 329.4L78.7299 330.87C76.4649 333.135 76.4699 336.81 78.7349 339.07C80.9999 341.335 84.6749 341.33 86.9349 339.065L88.4049 337.595L88.4349 337.625L92.3649 333.69L152.455 273.36L152.45 273.355L157.86 262.19L157.89 262.215L160.3 257.245L155.295 259.635L155.405 259.75Z" fill="#B2B3B5"/>
<path d="M85.0599 335.395C82.7949 337.66 79.1249 337.665 76.8599 335.4C74.5949 333.135 74.5899 329.465 76.8549 327.2L84.8949 319.15C87.1599 316.885 90.8299 316.88 93.0949 319.145C95.3599 321.41 95.3649 325.08 93.0999 327.345L85.0599 335.395Z" fill="white"/>
<path d="M82.2224 321.756L78.2937 325.69L86.562 333.947L90.4907 330.013L82.2224 321.756Z" fill="#D2D2D2"/>
<path d="M142.3 261.445L150.565 269.7L158.26 253.82L142.3 261.445Z" fill="#FDFFFE"/>
<path d="M158.42 253.575L153.42 255.965L156.01 258.55L158.42 253.575Z" fill="#543823"/>
<path d="M142.297 261.443L82.2028 321.775L90.4851 330.025L150.579 269.692L142.297 261.443Z" fill="#FCB040"/>
<path d="M144.619 263.76L84.5255 324.092L88.1566 327.709L148.25 267.377L144.619 263.76Z" fill="#E6A03A"/>
<path d="M160.885 267.28C160.885 267.28 160.88 267.295 160.875 267.32L160.885 267.28Z" fill="#ECECF0"/>
<path d="M174.329 159.119C174.329 158.876 174.363 158.62 174.433 158.349C174.668 157.406 174.942 156.484 175.254 155.583C175.573 154.675 175.861 153.773 176.118 152.879C176.374 151.984 176.586 151.232 176.752 150.622C176.925 150.005 177.078 149.478 177.21 149.041C177.341 148.597 177.463 148.216 177.574 147.897C177.685 147.578 177.806 147.263 177.938 146.951C178.021 146.763 178.111 146.569 178.208 146.368C178.312 146.167 178.423 145.983 178.541 145.817C178.659 145.644 178.78 145.505 178.905 145.401C179.037 145.29 179.172 145.235 179.31 145.235C179.595 145.235 179.81 145.283 179.955 145.38C180.108 145.47 180.201 145.553 180.236 145.63L180.33 146.056C180.434 146.049 180.569 146.032 180.735 146.004C180.902 145.969 181.068 145.935 181.235 145.9C181.408 145.865 181.567 145.831 181.713 145.796C181.859 145.761 181.97 145.73 182.046 145.703C182.503 145.578 182.926 145.47 183.315 145.38C183.703 145.29 184.07 145.217 184.417 145.162C184.771 145.099 185.107 145.054 185.426 145.027C185.745 144.999 186.067 144.985 186.393 144.985C186.712 144.985 186.972 145.002 187.173 145.037C187.374 145.072 187.534 145.12 187.652 145.183C187.769 145.238 187.849 145.307 187.891 145.391C187.939 145.467 187.964 145.55 187.964 145.64C187.964 145.723 187.939 145.813 187.891 145.911C187.849 146.001 187.776 146.087 187.672 146.171C187.568 146.254 187.433 146.327 187.267 146.389C187.1 146.451 186.892 146.493 186.643 146.514C186.58 146.528 186.435 146.555 186.206 146.597C185.984 146.632 185.741 146.673 185.478 146.722C185.214 146.763 184.965 146.805 184.729 146.847C184.493 146.888 184.33 146.919 184.24 146.94H184.251C184.209 146.947 184.109 146.975 183.949 147.023C183.797 147.065 183.609 147.117 183.387 147.179C183.166 147.235 182.923 147.301 182.659 147.377C182.403 147.453 182.146 147.53 181.89 147.606C181.64 147.675 181.408 147.744 181.193 147.814C180.978 147.876 180.805 147.928 180.673 147.97C180.25 148.136 179.917 148.358 179.675 148.635C179.439 148.906 179.252 149.211 179.113 149.551C179.085 149.613 179.044 149.721 178.988 149.873C178.933 150.019 178.87 150.189 178.801 150.383C178.738 150.57 178.669 150.771 178.593 150.986C178.517 151.201 178.444 151.405 178.374 151.6C178.305 151.794 178.243 151.971 178.187 152.13C178.139 152.289 178.104 152.407 178.083 152.484C178.062 152.553 178.049 152.615 178.042 152.671C178.035 152.726 178.031 152.768 178.031 152.796C178.031 152.837 178.042 152.858 178.062 152.858C178.166 152.858 178.381 152.813 178.707 152.723C179.04 152.626 179.425 152.508 179.862 152.369C180.305 152.231 180.777 152.081 181.276 151.922C181.782 151.763 182.264 151.613 182.722 151.475C183.186 151.336 183.599 151.222 183.959 151.132C184.32 151.034 184.58 150.986 184.74 150.986C184.982 150.986 185.145 151.028 185.228 151.111C185.312 151.187 185.353 151.274 185.353 151.371C185.353 151.62 185.263 151.839 185.083 152.026C184.909 152.213 184.691 152.376 184.427 152.515C184.344 152.556 184.188 152.619 183.959 152.702C183.738 152.778 183.495 152.858 183.231 152.941C182.975 153.024 182.729 153.104 182.493 153.18C182.257 153.257 182.087 153.312 181.983 153.347C181.304 153.61 180.749 153.829 180.319 154.002C179.896 154.168 179.553 154.307 179.29 154.418C179.026 154.522 178.822 154.602 178.676 154.657C178.537 154.713 178.406 154.761 178.281 154.803C178.163 154.838 178.031 154.872 177.886 154.907C177.74 154.942 177.539 154.99 177.282 155.052C177.22 155.198 177.147 155.42 177.064 155.718C176.981 156.009 176.901 156.314 176.825 156.633C176.749 156.945 176.683 157.237 176.627 157.507C176.579 157.777 176.554 157.965 176.554 158.069C176.554 158.193 176.572 158.287 176.606 158.349C176.641 158.405 176.683 158.443 176.731 158.464C176.78 158.485 176.828 158.495 176.877 158.495C176.925 158.495 176.963 158.495 176.991 158.495C177.324 158.495 177.723 158.446 178.187 158.349C178.659 158.252 179.123 158.124 179.581 157.965C180.018 157.812 180.399 157.646 180.725 157.465C181.051 157.285 181.356 157.119 181.64 156.966C181.931 156.807 182.212 156.675 182.483 156.571C182.76 156.46 183.062 156.401 183.387 156.394C183.457 156.394 183.537 156.401 183.627 156.415C183.724 156.429 183.814 156.457 183.897 156.498C183.98 156.533 184.046 156.581 184.095 156.644C184.15 156.706 184.171 156.786 184.157 156.883C184.129 157.084 184.029 157.282 183.855 157.476C183.682 157.67 183.464 157.857 183.2 158.037C182.937 158.218 182.642 158.391 182.316 158.557C181.99 158.724 181.658 158.883 181.318 159.036C180.978 159.181 180.645 159.317 180.319 159.441C179.993 159.559 179.702 159.663 179.446 159.753C178.808 159.975 178.187 160.138 177.584 160.242C176.981 160.346 176.44 160.398 175.962 160.398C175.435 160.398 175.029 160.298 174.745 160.097C174.467 159.903 174.329 159.577 174.329 159.119ZM186.674 159.473C186.515 159.597 186.303 159.66 186.04 159.66C185.922 159.66 185.814 159.636 185.717 159.587C185.627 159.539 185.547 159.476 185.478 159.4C185.416 159.317 185.367 159.227 185.332 159.129C185.298 159.025 185.28 158.921 185.28 158.817C185.28 158.672 185.308 158.55 185.364 158.453C185.426 158.349 185.499 158.263 185.582 158.193C185.672 158.117 185.766 158.055 185.863 158.006C185.967 157.958 186.06 157.916 186.144 157.881C186.421 157.701 186.733 157.479 187.08 157.216C187.426 156.952 187.783 156.671 188.151 156.373C188.518 156.068 188.882 155.76 189.243 155.448C189.61 155.136 189.957 154.838 190.283 154.553L190.751 154.137C190.647 153.784 190.543 153.482 190.439 153.232C190.335 152.976 190.231 152.747 190.127 152.546C190.023 152.345 189.915 152.158 189.804 151.984C189.7 151.804 189.586 151.613 189.461 151.412C189.35 151.232 189.264 151.093 189.201 150.996C189.146 150.899 189.118 150.802 189.118 150.705C189.118 150.636 189.135 150.553 189.17 150.456C189.205 150.352 189.257 150.254 189.326 150.164C189.402 150.067 189.496 149.988 189.607 149.925C189.725 149.856 189.86 149.821 190.012 149.821C190.234 149.821 190.429 149.87 190.595 149.967C190.768 150.057 190.921 150.175 191.053 150.32C191.184 150.466 191.299 150.625 191.396 150.799C191.493 150.965 191.579 151.125 191.656 151.277C191.697 151.36 191.742 151.471 191.791 151.61C191.84 151.749 191.885 151.898 191.926 152.057C191.975 152.21 192.02 152.362 192.061 152.515C192.103 152.66 192.138 152.789 192.165 152.9C192.47 152.608 192.765 152.303 193.049 151.984C193.341 151.665 193.663 151.294 194.017 150.872C194.128 150.74 194.242 150.598 194.36 150.445C194.485 150.293 194.613 150.154 194.745 150.029C194.876 149.897 195.012 149.79 195.15 149.707C195.289 149.623 195.438 149.582 195.598 149.582C195.868 149.582 196.059 149.651 196.17 149.79C196.287 149.929 196.346 150.109 196.346 150.331C196.346 150.566 196.301 150.785 196.211 150.986C196.128 151.18 196.017 151.333 195.878 151.444C195.677 151.603 195.455 151.797 195.213 152.026C194.977 152.248 194.734 152.484 194.485 152.733C194.242 152.983 193.999 153.229 193.757 153.472C193.514 153.714 193.292 153.933 193.091 154.127C193.008 154.203 192.935 154.279 192.873 154.356C192.817 154.432 192.789 154.529 192.789 154.647C192.789 154.716 192.807 154.803 192.841 154.907C192.883 155.011 192.932 155.122 192.987 155.24C193.049 155.358 193.108 155.479 193.164 155.604C193.226 155.722 193.278 155.829 193.32 155.926C193.403 156.113 193.517 156.335 193.663 156.592C193.816 156.848 193.965 157.119 194.11 157.403C194.263 157.68 194.395 157.965 194.505 158.256C194.616 158.547 194.672 158.824 194.672 159.088C194.672 159.254 194.648 159.41 194.599 159.556C194.551 159.695 194.488 159.816 194.412 159.92C194.336 160.031 194.249 160.117 194.152 160.18C194.062 160.242 193.975 160.273 193.892 160.273C193.712 160.273 193.566 160.253 193.455 160.211C193.351 160.169 193.261 160.107 193.185 160.024C193.108 159.941 193.042 159.84 192.987 159.722C192.938 159.597 192.883 159.455 192.821 159.296C192.73 159.039 192.613 158.745 192.467 158.412C192.321 158.079 192.169 157.75 192.009 157.424C191.857 157.098 191.711 156.796 191.573 156.519C191.434 156.235 191.326 156.02 191.25 155.874C191.056 156.027 190.855 156.186 190.647 156.353C190.446 156.512 190.182 156.72 189.856 156.977C189.531 157.233 189.115 157.559 188.608 157.954C188.109 158.349 187.464 158.856 186.674 159.473ZM202.389 159.441C202.389 159.24 202.413 159.001 202.462 158.724C202.51 158.44 202.535 158.089 202.535 157.673C202.306 157.84 202.053 158.037 201.775 158.266C201.498 158.495 201.21 158.713 200.912 158.921C200.614 159.129 200.316 159.306 200.018 159.452C199.726 159.591 199.453 159.66 199.196 159.66C198.988 159.66 198.79 159.629 198.603 159.566C198.416 159.504 198.257 159.421 198.125 159.317C197.757 159.025 197.49 158.734 197.324 158.443C197.165 158.152 197.085 157.812 197.085 157.424C197.085 157.25 197.099 157.07 197.126 156.883C197.161 156.696 197.21 156.481 197.272 156.238C197.535 155.143 197.986 154.13 198.624 153.201C199.269 152.265 200.066 151.468 201.016 150.809C201.384 150.553 201.751 150.39 202.119 150.32C202.486 150.244 202.85 150.206 203.211 150.206C203.37 150.206 203.547 150.216 203.741 150.237C203.942 150.258 204.122 150.279 204.282 150.3C204.441 150.265 204.57 150.241 204.667 150.227C204.771 150.213 204.878 150.206 204.989 150.206C205.197 150.206 205.37 150.234 205.509 150.289C205.648 150.345 205.759 150.421 205.842 150.518C205.925 150.608 205.984 150.716 206.019 150.84C206.06 150.958 206.081 151.083 206.081 151.215C206.081 151.395 206.053 151.568 205.998 151.735C205.942 151.894 205.887 152.057 205.831 152.224L204.459 157.705C204.431 158.003 204.407 158.277 204.386 158.526C204.365 158.776 204.323 159.008 204.261 159.223C204.24 159.285 204.212 159.365 204.178 159.462C204.15 159.552 204.102 159.643 204.032 159.733C203.963 159.816 203.876 159.889 203.772 159.951C203.668 160.013 203.533 160.045 203.367 160.045C203.152 160.045 202.978 160.031 202.847 160.003C202.722 159.975 202.625 159.937 202.555 159.889C202.486 159.833 202.441 159.771 202.42 159.701C202.399 159.625 202.389 159.539 202.389 159.441ZM198.936 156.301C198.908 156.398 198.877 156.536 198.842 156.717C198.815 156.897 198.801 157.077 198.801 157.257C198.801 157.445 198.829 157.614 198.884 157.767C198.94 157.913 199.061 157.985 199.248 157.985C199.539 157.985 199.81 157.923 200.059 157.798C200.316 157.666 200.555 157.51 200.777 157.33C201.075 157.088 201.377 156.817 201.682 156.519C201.994 156.214 202.285 155.895 202.555 155.562C202.833 155.229 203.075 154.89 203.283 154.543C203.498 154.189 203.654 153.839 203.751 153.492C203.807 153.291 203.852 153.059 203.887 152.796C203.928 152.532 203.949 152.296 203.949 152.088C203.949 151.998 203.928 151.912 203.887 151.828C203.845 151.738 203.765 151.693 203.647 151.693C203.308 151.693 202.964 151.759 202.618 151.891C202.278 152.023 201.949 152.199 201.63 152.421C201.311 152.643 201.006 152.907 200.715 153.212C200.43 153.51 200.17 153.832 199.934 154.179C199.699 154.519 199.494 154.872 199.321 155.24C199.154 155.6 199.026 155.954 198.936 156.301ZM207.683 159.202C207.891 158.391 208.092 157.635 208.286 156.935C208.48 156.235 208.667 155.566 208.848 154.928C209.035 154.283 209.215 153.659 209.388 153.056C209.562 152.452 209.728 151.839 209.888 151.215C209.95 150.972 209.985 150.74 209.992 150.518C210.006 150.289 210.04 150.053 210.096 149.811C210.123 149.727 210.172 149.655 210.241 149.592C210.318 149.523 210.401 149.464 210.491 149.415C210.581 149.367 210.675 149.329 210.772 149.301C210.876 149.273 210.973 149.259 211.063 149.259C211.257 149.259 211.417 149.284 211.541 149.332C211.673 149.374 211.777 149.433 211.853 149.509C211.937 149.585 211.992 149.679 212.02 149.79C212.054 149.894 212.072 150.012 212.072 150.144C212.072 150.379 212.034 150.618 211.957 150.861C211.881 151.097 211.787 151.357 211.677 151.641C212.002 151.385 212.335 151.142 212.675 150.913C213.022 150.684 213.375 150.483 213.736 150.31C214.103 150.137 214.478 149.998 214.859 149.894C215.24 149.79 215.636 149.738 216.045 149.738C216.232 149.738 216.419 149.769 216.606 149.831C216.794 149.887 216.96 149.977 217.106 150.102C217.258 150.227 217.383 150.39 217.48 150.591C217.584 150.792 217.643 151.038 217.657 151.329C217.955 151.128 218.263 150.927 218.582 150.726C218.901 150.518 219.224 150.334 219.55 150.175C219.882 150.008 220.212 149.877 220.538 149.779C220.87 149.675 221.193 149.623 221.505 149.623C221.969 149.623 222.351 149.686 222.649 149.811C222.954 149.929 223.193 150.092 223.367 150.3C223.547 150.501 223.672 150.736 223.741 151.007C223.817 151.277 223.855 151.565 223.855 151.87C223.855 152.203 223.824 152.546 223.762 152.9C223.699 153.253 223.63 153.59 223.554 153.908C223.353 154.713 223.127 155.475 222.878 156.197C222.628 156.911 222.358 157.635 222.067 158.37C221.997 158.544 221.924 158.727 221.848 158.921C221.772 159.116 221.682 159.296 221.578 159.462C221.481 159.622 221.363 159.757 221.224 159.868C221.092 159.972 220.936 160.024 220.756 160.024C220.347 160.024 220.066 159.955 219.914 159.816C219.761 159.677 219.685 159.48 219.685 159.223C219.685 159.154 219.688 159.074 219.695 158.984C219.702 158.894 219.719 158.807 219.747 158.724C219.775 158.62 219.837 158.471 219.934 158.277C220.031 158.076 220.135 157.861 220.246 157.632C220.364 157.403 220.479 157.174 220.59 156.945C220.701 156.71 220.784 156.505 220.839 156.332C220.929 156.034 221.033 155.69 221.151 155.302C221.276 154.907 221.394 154.512 221.505 154.116C221.616 153.714 221.706 153.336 221.775 152.983C221.852 152.622 221.89 152.331 221.89 152.109C221.89 152.005 221.879 151.901 221.858 151.797C221.838 151.693 221.8 151.603 221.744 151.527C221.696 151.45 221.623 151.388 221.526 151.34C221.436 151.291 221.318 151.267 221.172 151.267C220.964 151.267 220.714 151.326 220.423 151.444C220.139 151.561 219.841 151.717 219.529 151.912C219.224 152.099 218.926 152.314 218.634 152.556C218.343 152.792 218.094 153.028 217.886 153.264C217.74 153.43 217.601 153.565 217.47 153.669C217.338 153.773 217.206 153.853 217.074 153.908C217.06 153.936 217.026 154.03 216.97 154.189C216.915 154.342 216.849 154.529 216.773 154.751C216.696 154.966 216.617 155.202 216.533 155.458C216.45 155.708 216.371 155.943 216.294 156.165C216.225 156.38 216.166 156.564 216.117 156.717C216.069 156.862 216.045 156.942 216.045 156.956C215.996 157.15 215.955 157.351 215.92 157.559C215.885 157.76 215.854 157.954 215.826 158.141C215.799 158.329 215.771 158.53 215.743 158.745C215.722 158.953 215.674 159.15 215.597 159.337C215.528 159.518 215.417 159.667 215.265 159.785C215.119 159.903 214.911 159.961 214.641 159.961C214.502 159.961 214.374 159.927 214.256 159.857C214.145 159.788 214.048 159.701 213.965 159.597C213.881 159.487 213.816 159.365 213.767 159.233C213.718 159.095 213.691 158.956 213.684 158.817C213.843 158.193 213.999 157.632 214.152 157.133C214.304 156.633 214.457 156.155 214.609 155.697C214.762 155.24 214.908 154.782 215.046 154.324C215.192 153.86 215.334 153.35 215.473 152.796C215.507 152.664 215.535 152.536 215.556 152.411C215.577 152.279 215.587 152.165 215.587 152.068C215.587 151.901 215.552 151.766 215.483 151.662C215.414 151.551 215.292 151.496 215.119 151.496C214.835 151.496 214.55 151.554 214.266 151.672C213.989 151.783 213.687 151.96 213.361 152.203C213.035 152.445 212.671 152.754 212.269 153.128C211.874 153.503 211.417 153.95 210.896 154.47C210.841 154.574 210.768 154.768 210.678 155.052C210.588 155.337 210.494 155.638 210.397 155.957C210.307 156.276 210.224 156.574 210.148 156.852C210.071 157.122 210.023 157.302 210.002 157.393C209.926 157.684 209.874 157.93 209.846 158.131C209.818 158.325 209.794 158.502 209.773 158.661C209.759 158.745 209.739 158.883 209.711 159.077C209.683 159.265 209.631 159.455 209.555 159.649C209.485 159.844 209.385 160.013 209.253 160.159C209.121 160.312 208.948 160.388 208.733 160.388C208.414 160.388 208.151 160.301 207.943 160.128C207.742 159.955 207.641 159.736 207.641 159.473C207.641 159.424 207.645 159.379 207.652 159.337C207.658 159.296 207.669 159.251 207.683 159.202ZM226.227 158.048C226.282 158.048 226.331 158.055 226.372 158.069C226.421 158.082 226.473 158.1 226.528 158.121C226.584 158.134 226.646 158.148 226.715 158.162C226.785 158.176 226.875 158.183 226.986 158.183C227.312 158.183 227.672 158.148 228.068 158.079C228.47 158.01 228.848 157.92 229.201 157.809C229.555 157.698 229.856 157.573 230.106 157.434C230.363 157.289 230.508 157.14 230.543 156.987C230.564 156.904 230.574 156.831 230.574 156.769C230.574 156.651 230.515 156.54 230.397 156.436C230.286 156.325 230.144 156.221 229.971 156.124C229.797 156.027 229.61 155.937 229.409 155.853C229.208 155.77 229.021 155.694 228.848 155.625L228.494 155.479C228.314 155.41 228.137 155.326 227.964 155.229C227.79 155.125 227.627 155.007 227.475 154.876C227.329 154.744 227.197 154.591 227.079 154.418C226.969 154.238 226.885 154.033 226.83 153.804C226.802 153.707 226.778 153.61 226.757 153.513C226.743 153.416 226.736 153.312 226.736 153.201C226.736 153.021 226.795 152.816 226.913 152.588C227.038 152.352 227.201 152.12 227.402 151.891C227.61 151.662 227.842 151.444 228.099 151.236C228.362 151.028 228.636 150.854 228.92 150.716C229.128 150.57 229.329 150.438 229.524 150.32C229.718 150.202 229.912 150.102 230.106 150.019C230.307 149.935 230.508 149.87 230.709 149.821C230.917 149.773 231.136 149.748 231.364 149.748C231.572 149.748 231.798 149.759 232.04 149.779C232.283 149.8 232.505 149.849 232.706 149.925C232.907 150.001 233.074 150.116 233.205 150.268C233.344 150.414 233.413 150.612 233.413 150.861C233.413 150.937 233.403 151.038 233.382 151.163C233.361 151.288 233.327 151.412 233.278 151.537C233.23 151.662 233.171 151.769 233.101 151.86C233.032 151.95 232.949 151.995 232.852 151.995C232.692 151.995 232.56 151.964 232.456 151.901C232.352 151.839 232.259 151.773 232.176 151.704C232.092 151.627 232.006 151.558 231.916 151.496C231.826 151.433 231.715 151.402 231.583 151.402C231.423 151.402 231.236 151.433 231.021 151.496C230.813 151.551 230.598 151.631 230.376 151.735C230.155 151.832 229.936 151.946 229.721 152.078C229.513 152.21 229.323 152.345 229.149 152.484C228.983 152.622 228.848 152.761 228.744 152.9C228.64 153.031 228.588 153.153 228.588 153.264C228.588 153.381 228.626 153.479 228.702 153.555C228.778 153.631 228.875 153.697 228.993 153.752C229.146 153.836 229.319 153.919 229.513 154.002C229.714 154.085 229.915 154.168 230.116 154.252C230.317 154.335 230.512 154.418 230.699 154.501C230.893 154.584 231.059 154.661 231.198 154.73C231.385 154.827 231.552 154.924 231.697 155.021C231.85 155.111 231.978 155.212 232.082 155.323C232.186 155.434 232.266 155.559 232.321 155.697C232.377 155.836 232.404 155.999 232.404 156.186C232.404 156.276 232.398 156.366 232.384 156.457C232.37 156.547 232.349 156.651 232.321 156.769C232.3 156.873 232.262 156.994 232.207 157.133C232.158 157.271 232.103 157.41 232.04 157.549C231.985 157.68 231.926 157.802 231.864 157.913C231.801 158.017 231.749 158.086 231.708 158.121C231.437 158.37 231.118 158.606 230.751 158.828C230.383 159.043 229.999 159.233 229.596 159.4C229.201 159.559 228.802 159.688 228.4 159.785C228.005 159.882 227.641 159.93 227.308 159.93C227.142 159.93 226.958 159.899 226.757 159.837C226.556 159.767 226.369 159.681 226.195 159.577C226.029 159.466 225.887 159.341 225.769 159.202C225.658 159.064 225.603 158.925 225.603 158.786C225.603 158.717 225.623 158.641 225.665 158.557C225.707 158.467 225.759 158.388 225.821 158.318C225.883 158.242 225.949 158.18 226.019 158.131C226.095 158.076 226.164 158.048 226.227 158.048Z" fill="#29ABE2"/>
<path d="M144.245 388.645V388.515C144.07 388.715 143.9 388.875 143.73 389C143.56 389.125 143.375 389.22 143.18 389.285C142.98 389.35 142.765 389.385 142.53 389.385C142.22 389.385 141.93 389.32 141.67 389.19C141.405 389.06 141.175 388.87 140.985 388.625C140.79 388.38 140.645 388.095 140.545 387.765C140.445 387.435 140.395 387.08 140.395 386.695C140.395 385.885 140.595 385.255 140.99 384.8C141.385 384.35 141.905 384.12 142.555 384.12C142.93 384.12 143.245 384.185 143.5 384.31C143.755 384.44 144.005 384.635 144.25 384.9V382.985C144.25 382.72 144.305 382.52 144.41 382.38C144.515 382.245 144.665 382.175 144.865 382.175C145.06 382.175 145.21 382.24 145.32 382.365C145.425 382.49 145.48 382.675 145.48 382.92V388.64C145.48 388.885 145.425 389.07 145.31 389.195C145.195 389.32 145.05 389.38 144.87 389.38C144.695 389.38 144.545 389.315 144.43 389.19C144.305 389.065 144.245 388.88 144.245 388.645ZM141.695 386.74C141.695 387.09 141.75 387.39 141.86 387.635C141.97 387.88 142.12 388.07 142.31 388.195C142.5 388.32 142.705 388.385 142.93 388.385C143.16 388.385 143.365 388.325 143.555 388.205C143.745 388.085 143.895 387.905 144.005 387.66C144.115 387.415 144.175 387.11 144.175 386.74C144.175 386.395 144.12 386.1 144.005 385.85C143.895 385.6 143.74 385.41 143.55 385.28C143.36 385.15 143.15 385.085 142.92 385.085C142.685 385.085 142.47 385.15 142.285 385.285C142.1 385.42 141.955 385.61 141.85 385.865C141.745 386.115 141.695 386.405 141.695 386.74Z" fill="white"/>
<path d="M149.965 387.065H147.43C147.435 387.36 147.495 387.62 147.61 387.845C147.725 388.07 147.88 388.24 148.07 388.355C148.26 388.47 148.475 388.525 148.705 388.525C148.86 388.525 149 388.505 149.13 388.47C149.26 388.435 149.38 388.375 149.505 388.3C149.625 388.225 149.735 388.14 149.84 388.05C149.94 387.96 150.07 387.84 150.235 387.69C150.3 387.635 150.395 387.605 150.52 387.605C150.655 387.605 150.76 387.64 150.84 387.715C150.925 387.79 150.965 387.89 150.965 388.025C150.965 388.14 150.92 388.28 150.825 388.435C150.735 388.59 150.595 388.745 150.41 388.885C150.225 389.03 149.99 389.15 149.71 389.245C149.43 389.34 149.11 389.385 148.745 389.385C147.915 389.385 147.265 389.15 146.805 388.675C146.345 388.2 146.11 387.555 146.11 386.74C146.11 386.355 146.165 386 146.28 385.675C146.395 385.345 146.56 385.065 146.78 384.83C147 384.595 147.265 384.415 147.59 384.29C147.91 384.165 148.265 384.105 148.655 384.105C149.16 384.105 149.595 384.21 149.96 384.425C150.325 384.64 150.595 384.915 150.775 385.255C150.955 385.595 151.045 385.94 151.045 386.29C151.045 386.615 150.95 386.83 150.765 386.925C150.565 387.02 150.3 387.065 149.965 387.065ZM147.425 386.33H149.775C149.745 385.885 149.625 385.555 149.415 385.335C149.205 385.115 148.935 385.005 148.595 385.005C148.27 385.005 148.005 385.115 147.8 385.34C147.6 385.565 147.47 385.895 147.425 386.33Z" fill="white"/>
<path d="M155.87 387.69C155.87 388.045 155.785 388.355 155.61 388.61C155.435 388.865 155.18 389.06 154.84 389.19C154.5 389.32 154.085 389.385 153.6 389.385C153.135 389.385 152.735 389.315 152.405 389.17C152.075 389.03 151.825 388.85 151.67 388.635C151.51 388.42 151.435 388.205 151.435 387.99C151.435 387.85 151.485 387.725 151.585 387.625C151.685 387.525 151.815 387.475 151.97 387.475C152.105 387.475 152.21 387.51 152.285 387.575C152.36 387.64 152.43 387.735 152.495 387.855C152.63 388.085 152.785 388.26 152.975 388.375C153.16 388.49 153.415 388.545 153.735 388.545C153.995 388.545 154.205 388.485 154.375 388.37C154.54 388.255 154.625 388.12 154.625 387.975C154.625 387.745 154.54 387.58 154.365 387.475C154.19 387.37 153.91 387.27 153.51 387.175C153.065 387.065 152.7 386.95 152.42 386.825C152.14 386.705 151.915 386.54 151.75 386.345C151.58 386.145 151.5 385.9 151.5 385.61C151.5 385.35 151.58 385.105 151.735 384.875C151.89 384.645 152.12 384.46 152.42 384.32C152.72 384.18 153.085 384.115 153.515 384.115C153.85 384.115 154.15 384.15 154.42 384.22C154.69 384.29 154.91 384.385 155.09 384.5C155.27 384.615 155.405 384.745 155.5 384.89C155.595 385.035 155.64 385.17 155.64 385.31C155.64 385.46 155.59 385.58 155.49 385.675C155.39 385.77 155.25 385.82 155.065 385.82C154.93 385.82 154.82 385.78 154.725 385.705C154.63 385.63 154.525 385.515 154.405 385.365C154.305 385.24 154.19 385.135 154.06 385.06C153.925 384.985 153.745 384.945 153.52 384.945C153.285 384.945 153.09 384.995 152.935 385.095C152.78 385.195 152.7 385.32 152.7 385.465C152.7 385.6 152.755 385.715 152.87 385.8C152.985 385.89 153.14 385.96 153.33 386.015C153.525 386.07 153.79 386.14 154.13 386.225C154.53 386.325 154.86 386.44 155.115 386.575C155.37 386.71 155.565 386.87 155.695 387.055C155.805 387.24 155.87 387.45 155.87 387.69Z" fill="white"/>
<path d="M157.195 383.51C157.015 383.51 156.86 383.455 156.73 383.345C156.6 383.235 156.54 383.08 156.54 382.875C156.54 382.69 156.605 382.54 156.735 382.42C156.865 382.3 157.02 382.24 157.195 382.24C157.365 382.24 157.51 382.295 157.64 382.4C157.77 382.51 157.835 382.665 157.835 382.87C157.835 383.07 157.77 383.225 157.645 383.34C157.52 383.455 157.37 383.51 157.195 383.51ZM157.835 384.85V388.595C157.835 388.855 157.775 389.05 157.65 389.185C157.525 389.315 157.37 389.385 157.18 389.385C156.99 389.385 156.835 389.32 156.715 389.18C156.595 389.045 156.535 388.85 156.535 388.595V384.885C156.535 384.63 156.595 384.435 156.715 384.305C156.835 384.175 156.99 384.11 157.18 384.11C157.37 384.11 157.525 384.175 157.65 384.305C157.775 384.44 157.835 384.62 157.835 384.85Z" fill="white"/>
<path d="M163.515 385.065V388.83C163.515 389.26 163.47 389.63 163.375 389.94C163.285 390.25 163.135 390.505 162.935 390.71C162.73 390.91 162.465 391.065 162.14 391.16C161.81 391.26 161.405 391.305 160.915 391.305C160.47 391.305 160.07 391.24 159.72 391.115C159.37 390.99 159.1 390.83 158.91 390.63C158.72 390.43 158.625 390.23 158.625 390.02C158.625 389.86 158.68 389.73 158.785 389.635C158.89 389.535 159.02 389.485 159.175 389.485C159.365 389.485 159.53 389.57 159.675 389.735C159.745 389.82 159.815 389.905 159.89 389.995C159.965 390.08 160.045 390.155 160.135 390.22C160.225 390.28 160.335 390.325 160.46 390.36C160.585 390.39 160.735 390.405 160.895 390.405C161.23 390.405 161.49 390.36 161.675 390.265C161.86 390.17 161.99 390.04 162.065 389.875C162.14 389.71 162.185 389.53 162.195 389.335C162.21 389.145 162.215 388.835 162.225 388.41C162.025 388.69 161.795 388.9 161.535 389.045C161.275 389.19 160.965 389.265 160.6 389.265C160.165 389.265 159.785 389.155 159.46 388.93C159.135 388.71 158.885 388.4 158.71 388C158.535 387.6 158.45 387.14 158.45 386.62C158.45 386.23 158.505 385.88 158.61 385.565C158.715 385.25 158.87 384.985 159.065 384.77C159.26 384.555 159.49 384.395 159.745 384.285C160 384.175 160.285 384.12 160.59 384.12C160.955 384.12 161.275 384.19 161.545 384.33C161.815 384.47 162.065 384.695 162.295 384.995V384.82C162.295 384.595 162.35 384.42 162.46 384.3C162.57 384.175 162.715 384.115 162.89 384.115C163.14 384.115 163.305 384.195 163.39 384.36C163.475 384.52 163.515 384.755 163.515 385.065ZM159.76 386.705C159.76 387.23 159.875 387.63 160.105 387.895C160.335 388.165 160.63 388.3 160.995 388.3C161.21 388.3 161.415 388.24 161.605 388.125C161.795 388.01 161.955 387.835 162.075 387.605C162.195 387.37 162.255 387.09 162.255 386.755C162.255 386.225 162.14 385.815 161.905 385.52C161.67 385.225 161.365 385.08 160.985 385.08C160.615 385.08 160.32 385.22 160.095 385.505C159.87 385.785 159.76 386.185 159.76 386.705Z" fill="white"/>
<path d="M165.575 384.83V384.985C165.805 384.685 166.05 384.465 166.325 384.32C166.595 384.18 166.905 384.11 167.26 384.11C167.6 384.11 167.905 384.185 168.175 384.335C168.445 384.485 168.645 384.695 168.78 384.965C168.865 385.125 168.92 385.295 168.945 385.48C168.97 385.665 168.985 385.9 168.985 386.185V388.595C168.985 388.855 168.925 389.05 168.805 389.185C168.685 389.315 168.53 389.385 168.34 389.385C168.145 389.385 167.99 389.32 167.87 389.18C167.75 389.045 167.69 388.85 167.69 388.595V386.435C167.69 386.01 167.63 385.68 167.51 385.455C167.39 385.23 167.155 385.115 166.8 385.115C166.57 385.115 166.36 385.185 166.17 385.32C165.98 385.46 165.84 385.645 165.75 385.89C165.685 386.085 165.655 386.445 165.655 386.975V388.6C165.655 388.865 165.595 389.06 165.47 389.19C165.35 389.32 165.19 389.385 164.995 389.385C164.81 389.385 164.655 389.32 164.535 389.18C164.415 389.045 164.355 388.85 164.355 388.595V384.85C164.355 384.605 164.41 384.42 164.515 384.295C164.625 384.175 164.77 384.11 164.955 384.11C165.07 384.11 165.17 384.135 165.265 384.19C165.355 384.245 165.43 384.325 165.485 384.43C165.55 384.545 165.575 384.675 165.575 384.83Z" fill="white"/>
<path d="M173.465 387.065H170.93C170.935 387.36 170.99 387.62 171.11 387.845C171.225 388.07 171.38 388.24 171.57 388.355C171.76 388.47 171.975 388.525 172.205 388.525C172.36 388.525 172.5 388.505 172.63 388.47C172.76 388.435 172.88 388.375 173.005 388.3C173.125 388.225 173.235 388.14 173.335 388.05C173.435 387.96 173.565 387.84 173.73 387.69C173.795 387.635 173.89 387.605 174.015 387.605C174.15 387.605 174.255 387.64 174.34 387.715C174.425 387.79 174.465 387.89 174.465 388.025C174.465 388.14 174.42 388.28 174.325 388.435C174.235 388.59 174.095 388.745 173.91 388.885C173.725 389.03 173.495 389.15 173.21 389.245C172.93 389.34 172.605 389.385 172.245 389.385C171.41 389.385 170.765 389.15 170.3 388.675C169.84 388.2 169.605 387.555 169.605 386.74C169.605 386.355 169.66 386 169.775 385.675C169.89 385.345 170.055 385.065 170.275 384.83C170.495 384.595 170.76 384.415 171.08 384.29C171.4 384.165 171.755 384.105 172.145 384.105C172.65 384.105 173.085 384.21 173.45 384.425C173.815 384.64 174.085 384.915 174.265 385.255C174.445 385.595 174.535 385.94 174.535 386.29C174.535 386.615 174.44 386.83 174.255 386.925C174.065 387.02 173.8 387.065 173.465 387.065ZM170.93 386.33H173.28C173.25 385.885 173.13 385.555 172.92 385.335C172.715 385.115 172.44 385.005 172.1 385.005C171.775 385.005 171.51 385.115 171.305 385.34C171.095 385.565 170.97 385.895 170.93 386.33Z" fill="white"/>
<path d="M178.75 388.645V388.515C178.575 388.715 178.405 388.875 178.235 389C178.065 389.125 177.88 389.22 177.685 389.285C177.49 389.35 177.27 389.385 177.035 389.385C176.725 389.385 176.435 389.32 176.175 389.19C175.91 389.06 175.68 388.87 175.49 388.625C175.295 388.38 175.15 388.095 175.05 387.765C174.95 387.435 174.9 387.08 174.9 386.695C174.9 385.885 175.1 385.255 175.495 384.8C175.89 384.35 176.41 384.12 177.06 384.12C177.435 384.12 177.75 384.185 178.005 384.31C178.26 384.44 178.51 384.635 178.755 384.9V382.985C178.755 382.72 178.81 382.52 178.915 382.38C179.02 382.245 179.17 382.175 179.37 382.175C179.565 382.175 179.715 382.24 179.825 382.365C179.93 382.49 179.985 382.675 179.985 382.92V388.64C179.985 388.885 179.93 389.07 179.815 389.195C179.7 389.32 179.555 389.38 179.375 389.38C179.2 389.38 179.05 389.315 178.935 389.19C178.805 389.065 178.75 388.88 178.75 388.645ZM176.2 386.74C176.2 387.09 176.255 387.39 176.365 387.635C176.475 387.88 176.625 388.07 176.815 388.195C177.005 388.32 177.21 388.385 177.435 388.385C177.665 388.385 177.87 388.325 178.06 388.205C178.25 388.085 178.4 387.905 178.51 387.66C178.625 387.415 178.68 387.11 178.68 386.74C178.68 386.395 178.625 386.1 178.51 385.85C178.4 385.6 178.245 385.41 178.055 385.28C177.865 385.15 177.655 385.085 177.425 385.085C177.19 385.085 176.975 385.15 176.79 385.285C176.605 385.42 176.46 385.61 176.355 385.865C176.25 386.115 176.2 386.405 176.2 386.74Z" fill="white"/>
<path d="M184.045 382.925V384.905C184.29 384.65 184.535 384.455 184.79 384.325C185.045 384.19 185.355 384.125 185.73 384.125C186.16 384.125 186.54 384.225 186.865 384.43C187.19 384.635 187.44 384.93 187.62 385.32C187.8 385.71 187.89 386.17 187.89 386.7C187.89 387.095 187.84 387.45 187.74 387.78C187.64 388.11 187.495 388.39 187.305 388.63C187.115 388.87 186.885 389.055 186.615 389.19C186.345 389.32 186.045 389.385 185.72 389.385C185.52 389.385 185.33 389.36 185.155 389.315C184.98 389.27 184.83 389.205 184.705 389.125C184.58 389.05 184.475 388.97 184.39 388.885C184.305 388.805 184.19 388.68 184.045 388.515V388.645C184.045 388.89 183.985 389.075 183.87 389.2C183.755 389.325 183.605 389.385 183.425 389.385C183.24 389.385 183.095 389.325 182.985 389.2C182.875 389.075 182.82 388.89 182.82 388.645V382.985C182.82 382.72 182.875 382.525 182.98 382.39C183.085 382.255 183.235 382.19 183.425 382.19C183.625 382.19 183.78 382.255 183.885 382.38C183.995 382.505 184.045 382.69 184.045 382.925ZM184.11 386.775C184.11 387.29 184.23 387.685 184.465 387.965C184.7 388.24 185.01 388.38 185.395 388.38C185.72 388.38 186 388.24 186.24 387.955C186.475 387.67 186.595 387.265 186.595 386.735C186.595 386.395 186.545 386.1 186.45 385.85C186.35 385.6 186.215 385.41 186.03 385.275C185.85 385.14 185.64 385.075 185.4 385.075C185.155 385.075 184.935 385.14 184.74 385.275C184.545 385.41 184.395 385.605 184.285 385.86C184.165 386.12 184.11 386.425 184.11 386.775Z" fill="white"/>
<path d="M189.57 389.545L189.69 389.255L188.095 385.235C187.995 385.005 187.95 384.835 187.95 384.73C187.95 384.62 187.98 384.515 188.035 384.42C188.09 384.325 188.17 384.25 188.27 384.19C188.37 384.13 188.475 384.105 188.58 384.105C188.765 384.105 188.905 384.165 189.005 384.285C189.1 384.405 189.185 384.575 189.255 384.795L190.35 387.985L191.39 385.015C191.47 384.775 191.545 384.585 191.615 384.45C191.68 384.315 191.75 384.22 191.825 384.175C191.9 384.125 192.005 384.105 192.14 384.105C192.24 384.105 192.33 384.13 192.425 384.185C192.515 384.235 192.585 384.31 192.635 384.395C192.685 384.485 192.71 384.575 192.71 384.675C192.695 384.735 192.675 384.82 192.65 384.93C192.62 385.04 192.585 385.155 192.545 385.265L190.855 389.69C190.71 390.08 190.565 390.385 190.425 390.605C190.285 390.825 190.1 391 189.87 391.115C189.64 391.235 189.33 391.295 188.94 391.295C188.56 391.295 188.275 391.255 188.085 391.17C187.895 391.085 187.8 390.935 187.8 390.72C187.8 390.57 187.845 390.455 187.935 390.375C188.025 390.295 188.16 390.255 188.335 390.255C188.405 390.255 188.475 390.265 188.54 390.285C188.62 390.305 188.695 390.315 188.755 390.315C188.905 390.315 189.02 390.295 189.105 390.25C189.19 390.205 189.265 390.13 189.335 390.02C189.405 389.92 189.48 389.76 189.57 389.545Z" fill="white"/>
<path d="M208.35 384.225H208.66V383.835C208.66 383.43 208.71 383.105 208.815 382.865C208.915 382.625 209.095 382.45 209.34 382.345C209.585 382.235 209.92 382.18 210.35 382.18C211.11 382.18 211.485 382.365 211.485 382.735C211.485 382.855 211.445 382.96 211.365 383.045C211.29 383.13 211.195 383.175 211.085 383.175C211.035 383.175 210.945 383.165 210.82 383.145C210.7 383.13 210.595 383.115 210.51 383.115C210.275 383.115 210.125 383.185 210.06 383.32C209.995 383.46 209.96 383.655 209.96 383.91V384.22H210.275C210.77 384.22 211.015 384.37 211.015 384.67C211.015 384.88 210.95 385.015 210.82 385.07C210.69 385.125 210.51 385.155 210.275 385.155H209.96V388.59C209.96 388.845 209.9 389.04 209.775 389.175C209.655 389.31 209.5 389.38 209.305 389.38C209.12 389.38 208.97 389.315 208.845 389.175C208.725 389.04 208.665 388.845 208.665 388.59V385.155H208.31C208.115 385.155 207.97 385.115 207.865 385.025C207.76 384.94 207.71 384.825 207.71 384.685C207.7 384.38 207.915 384.225 208.35 384.225Z" fill="white"/>
<path d="M212.595 387.51V388.595C212.595 388.855 212.53 389.055 212.41 389.185C212.285 389.32 212.13 389.385 211.94 389.385C211.75 389.385 211.595 389.32 211.475 389.185C211.355 389.055 211.295 388.855 211.295 388.6V384.99C211.295 384.405 211.505 384.115 211.925 384.115C212.14 384.115 212.295 384.18 212.39 384.32C212.485 384.46 212.535 384.655 212.55 384.925C212.705 384.66 212.86 384.46 213.025 384.32C213.19 384.185 213.405 384.115 213.68 384.115C213.955 384.115 214.215 384.18 214.475 384.32C214.73 384.455 214.86 384.64 214.86 384.86C214.86 385.02 214.805 385.15 214.695 385.25C214.585 385.355 214.465 385.405 214.34 385.405C214.29 385.405 214.175 385.375 213.995 385.315C213.81 385.26 213.65 385.23 213.515 385.23C213.325 385.23 213.17 385.28 213.05 385.38C212.93 385.48 212.835 385.63 212.77 385.825C212.705 386.02 212.66 386.26 212.635 386.525C212.605 386.79 212.595 387.125 212.595 387.51Z" fill="white"/>
<path d="M218.555 387.065H216.02C216.025 387.36 216.08 387.62 216.2 387.845C216.315 388.07 216.47 388.24 216.66 388.355C216.85 388.47 217.06 388.525 217.295 388.525C217.45 388.525 217.59 388.51 217.72 388.47C217.845 388.435 217.97 388.375 218.095 388.3C218.215 388.225 218.325 388.14 218.425 388.05C218.525 387.965 218.66 387.84 218.82 387.69C218.885 387.635 218.98 387.605 219.105 387.605C219.24 387.605 219.345 387.64 219.43 387.715C219.515 387.79 219.55 387.89 219.55 388.025C219.55 388.14 219.505 388.28 219.415 388.435C219.32 388.595 219.185 388.745 218.995 388.89C218.805 389.03 218.575 389.155 218.295 389.245C218.015 389.34 217.69 389.39 217.33 389.39C216.495 389.39 215.85 389.155 215.385 388.68C214.925 388.205 214.69 387.56 214.69 386.745C214.69 386.36 214.75 386.005 214.865 385.68C214.975 385.35 215.145 385.07 215.365 384.835C215.585 384.6 215.85 384.42 216.17 384.295C216.49 384.17 216.845 384.105 217.235 384.105C217.74 384.105 218.175 384.21 218.54 384.43C218.9 384.64 219.175 384.92 219.355 385.255C219.535 385.595 219.625 385.94 219.625 386.29C219.625 386.615 219.53 386.825 219.345 386.925C219.16 387.02 218.895 387.065 218.555 387.065ZM216.02 386.33H218.37C218.34 385.89 218.22 385.555 218.015 385.335C217.805 385.115 217.535 385.005 217.195 385.005C216.87 385.005 216.605 385.115 216.4 385.34C216.19 385.565 216.065 385.89 216.02 386.33Z" fill="white"/>
<path d="M223.95 387.065H221.415C221.415 387.36 221.48 387.62 221.59 387.845C221.705 388.07 221.86 388.24 222.05 388.355C222.24 388.47 222.45 388.525 222.685 388.525C222.84 388.525 222.98 388.51 223.105 388.47C223.235 388.435 223.36 388.375 223.48 388.3C223.6 388.225 223.71 388.14 223.81 388.05C223.91 387.965 224.04 387.84 224.205 387.69C224.275 387.635 224.37 387.605 224.49 387.605C224.625 387.605 224.73 387.64 224.815 387.715C224.895 387.79 224.935 387.89 224.935 388.025C224.935 388.14 224.89 388.28 224.8 388.435C224.71 388.595 224.57 388.745 224.385 388.89C224.2 389.03 223.965 389.155 223.685 389.245C223.405 389.34 223.08 389.39 222.72 389.39C221.885 389.39 221.24 389.155 220.775 388.68C220.315 388.205 220.08 387.56 220.08 386.745C220.08 386.36 220.14 386.005 220.255 385.68C220.37 385.35 220.535 385.07 220.755 384.835C220.97 384.6 221.24 384.42 221.56 384.295C221.88 384.17 222.235 384.105 222.625 384.105C223.13 384.105 223.565 384.21 223.93 384.43C224.29 384.64 224.565 384.92 224.74 385.255C224.92 385.595 225.01 385.94 225.01 386.29C225.01 386.615 224.915 386.825 224.73 386.925C224.55 387.02 224.29 387.065 223.95 387.065ZM221.415 386.33H223.765C223.735 385.89 223.615 385.555 223.41 385.335C223.2 385.115 222.93 385.005 222.59 385.005C222.265 385.005 222 385.115 221.795 385.34C221.585 385.565 221.455 385.89 221.415 386.33Z" fill="white"/>
<path d="M226.79 384.84V384.995C227.035 384.695 227.285 384.475 227.55 384.335C227.81 384.195 228.11 384.12 228.44 384.12C228.835 384.12 229.21 384.225 229.545 384.43C229.88 384.635 230.145 384.935 230.34 385.335C230.535 385.735 230.635 386.2 230.635 386.74C230.635 387.14 230.58 387.505 230.465 387.84C230.355 388.175 230.195 388.455 230 388.68C229.805 388.905 229.57 389.08 229.305 389.205C229.035 389.325 228.75 389.385 228.44 389.385C228.07 389.385 227.76 389.31 227.505 389.16C227.255 389.015 227.015 388.795 226.785 388.505V390.45C226.785 391.015 226.575 391.305 226.165 391.305C225.92 391.305 225.76 391.23 225.68 391.085C225.605 390.935 225.565 390.725 225.565 390.44V384.845C225.565 384.6 225.62 384.415 225.725 384.29C225.83 384.17 225.98 384.11 226.165 384.11C226.35 384.11 226.5 384.175 226.615 384.295C226.735 384.425 226.79 384.605 226.79 384.84ZM229.33 386.725C229.33 386.385 229.275 386.09 229.175 385.845C229.07 385.6 228.925 385.41 228.74 385.28C228.555 385.15 228.35 385.08 228.125 385.08C227.77 385.08 227.465 385.22 227.22 385.5C226.975 385.785 226.85 386.2 226.85 386.745C226.85 387.26 226.975 387.66 227.22 387.95C227.465 388.235 227.765 388.38 228.125 388.38C228.34 388.38 228.54 388.315 228.725 388.195C228.91 388.07 229.055 387.88 229.165 387.63C229.275 387.38 229.33 387.075 229.33 386.725Z" fill="white"/>
<path d="M231.94 383.505C231.76 383.505 231.605 383.45 231.48 383.34C231.35 383.23 231.285 383.075 231.285 382.87C231.285 382.685 231.35 382.535 231.485 382.415C231.615 382.3 231.77 382.235 231.94 382.235C232.11 382.235 232.26 382.29 232.385 382.395C232.515 382.505 232.58 382.66 232.58 382.87C232.58 383.07 232.515 383.225 232.39 383.34C232.265 383.45 232.115 383.505 231.94 383.505ZM232.58 384.845V388.595C232.58 388.85 232.52 389.05 232.395 389.18C232.27 389.315 232.115 389.38 231.925 389.38C231.735 389.38 231.58 389.315 231.46 389.175C231.345 389.035 231.285 388.845 231.285 388.59V384.875C231.285 384.62 231.345 384.425 231.46 384.3C231.58 384.17 231.735 384.105 231.925 384.105C232.115 384.105 232.27 384.17 232.395 384.3C232.52 384.435 232.58 384.615 232.58 384.845Z" fill="white"/>
<path d="M236.76 388.79L235.62 386.905L234.915 387.57V388.605C234.915 388.855 234.85 389.045 234.715 389.18C234.585 389.315 234.43 389.385 234.26 389.385C234.06 389.385 233.905 389.32 233.79 389.185C233.675 389.055 233.62 388.855 233.62 388.6V383.07C233.62 382.785 233.675 382.565 233.785 382.415C233.895 382.26 234.055 382.19 234.26 382.19C234.46 382.19 234.615 382.26 234.735 382.395C234.85 382.53 234.91 382.73 234.91 382.995V386.14L236.37 384.61C236.55 384.42 236.685 384.29 236.785 384.22C236.88 384.15 236.995 384.115 237.13 384.115C237.295 384.115 237.425 384.165 237.54 384.27C237.645 384.375 237.7 384.505 237.7 384.655C237.7 384.845 237.525 385.1 237.175 385.415L236.485 386.045L237.815 388.135C237.91 388.29 237.985 388.405 238.025 388.49C238.065 388.57 238.09 388.65 238.09 388.72C238.09 388.925 238.03 389.085 237.92 389.205C237.81 389.325 237.66 389.38 237.475 389.38C237.315 389.38 237.195 389.34 237.11 389.25C237.025 389.17 236.905 389.015 236.76 388.79Z" fill="white"/>
<path d="M239.58 389.385C239.385 389.385 239.215 389.32 239.075 389.195C238.935 389.07 238.86 388.89 238.86 388.665C238.86 388.475 238.93 388.305 239.065 388.17C239.2 388.03 239.37 387.96 239.57 387.96C239.77 387.96 239.94 388.03 240.08 388.165C240.22 388.305 240.29 388.47 240.29 388.665C240.29 388.89 240.22 389.07 240.08 389.195C239.935 389.32 239.77 389.385 239.58 389.385Z" fill="white"/>
<path d="M246.03 387.78C246.03 387.94 245.98 388.115 245.885 388.295C245.79 388.48 245.64 388.655 245.44 388.82C245.245 388.985 244.995 389.12 244.695 389.22C244.395 389.32 244.055 389.375 243.68 389.375C242.875 389.375 242.25 389.14 241.8 388.675C241.355 388.205 241.125 387.58 241.125 386.795C241.125 386.26 241.225 385.79 241.435 385.385C241.64 384.98 241.935 384.66 242.325 384.44C242.715 384.215 243.185 384.105 243.725 384.105C244.06 384.105 244.37 384.155 244.65 384.25C244.93 384.35 245.165 384.475 245.365 384.63C245.56 384.785 245.705 384.95 245.81 385.125C245.915 385.3 245.965 385.465 245.965 385.62C245.965 385.775 245.91 385.905 245.795 386.015C245.675 386.12 245.535 386.175 245.375 386.175C245.265 386.175 245.175 386.145 245.105 386.09C245.035 386.035 244.955 385.945 244.865 385.82C244.705 385.58 244.54 385.4 244.365 385.28C244.195 385.16 243.975 385.1 243.71 385.1C243.33 385.1 243.02 385.25 242.785 385.55C242.55 385.85 242.435 386.26 242.435 386.775C242.435 387.02 242.465 387.245 242.525 387.45C242.585 387.655 242.67 387.83 242.785 387.97C242.9 388.115 243.035 388.22 243.2 388.295C243.36 388.37 243.54 388.41 243.73 388.41C243.99 388.41 244.215 388.35 244.4 388.23C244.59 388.11 244.75 387.925 244.895 387.68C244.975 387.535 245.06 387.42 245.15 387.34C245.24 387.26 245.355 387.215 245.49 387.215C245.65 387.215 245.78 387.275 245.885 387.395C245.975 387.515 246.03 387.645 246.03 387.78Z" fill="white"/>
<path d="M251.625 386.75C251.625 387.135 251.565 387.49 251.445 387.82C251.32 388.145 251.15 388.425 250.92 388.66C250.69 388.895 250.42 389.075 250.105 389.2C249.785 389.325 249.43 389.39 249.035 389.39C248.64 389.39 248.29 389.325 247.975 389.2C247.665 389.075 247.39 388.895 247.16 388.66C246.93 388.42 246.755 388.145 246.635 387.82C246.52 387.5 246.46 387.145 246.46 386.755C246.46 386.36 246.52 386 246.64 385.675C246.76 385.35 246.935 385.07 247.16 384.84C247.385 384.61 247.655 384.43 247.975 384.305C248.295 384.18 248.65 384.12 249.035 384.12C249.425 384.12 249.785 384.185 250.105 384.31C250.425 384.435 250.695 384.62 250.925 384.85C251.155 385.085 251.325 385.365 251.445 385.685C251.565 386 251.625 386.355 251.625 386.75ZM250.32 386.75C250.32 386.22 250.205 385.81 249.97 385.515C249.74 385.215 249.425 385.07 249.035 385.07C248.78 385.07 248.555 385.135 248.365 385.265C248.17 385.395 248.025 385.59 247.92 385.845C247.815 386.1 247.76 386.4 247.76 386.745C247.76 387.085 247.81 387.38 247.915 387.63C248.02 387.885 248.165 388.08 248.36 388.215C248.555 388.35 248.775 388.415 249.035 388.415C249.425 388.415 249.74 388.265 249.97 387.97C250.205 387.68 250.32 387.27 250.32 386.75Z" fill="white"/>
<path d="M256.57 386.845V388.57C256.57 388.845 256.51 389.045 256.385 389.185C256.26 389.32 256.1 389.39 255.895 389.39C255.7 389.39 255.54 389.325 255.42 389.185C255.295 389.045 255.235 388.845 255.235 388.57V386.5C255.235 386.175 255.225 385.92 255.205 385.735C255.18 385.56 255.12 385.41 255.025 385.295C254.925 385.175 254.77 385.12 254.56 385.12C254.135 385.12 253.855 385.265 253.72 385.56C253.585 385.85 253.515 386.265 253.515 386.815V388.565C253.515 388.835 253.455 389.04 253.335 389.175C253.21 389.31 253.05 389.38 252.85 389.38C252.65 389.38 252.49 389.31 252.365 389.175C252.24 389.035 252.175 388.83 252.175 388.565V384.855C252.175 384.61 252.23 384.425 252.345 384.3C252.46 384.17 252.61 384.11 252.79 384.11C252.97 384.11 253.115 384.17 253.235 384.29C253.355 384.41 253.41 384.575 253.41 384.78V384.9C253.635 384.635 253.875 384.435 254.13 384.31C254.39 384.18 254.67 384.115 254.985 384.115C255.31 384.115 255.59 384.18 255.825 384.31C256.06 384.44 256.25 384.635 256.405 384.9C256.625 384.635 256.86 384.44 257.11 384.31C257.36 384.18 257.635 384.115 257.94 384.115C258.295 384.115 258.6 384.185 258.855 384.325C259.11 384.465 259.3 384.665 259.43 384.925C259.54 385.16 259.595 385.53 259.595 386.035V388.565C259.595 388.84 259.535 389.04 259.41 389.18C259.285 389.315 259.125 389.385 258.92 389.385C258.72 389.385 258.565 389.315 258.435 389.18C258.31 389.04 258.245 388.835 258.245 388.57V386.39C258.245 386.11 258.235 385.89 258.21 385.72C258.185 385.55 258.12 385.41 258.02 385.295C257.915 385.18 257.755 385.125 257.545 385.125C257.375 385.125 257.21 385.18 257.06 385.28C256.905 385.38 256.785 385.52 256.7 385.685C256.62 385.9 256.57 386.29 256.57 386.845Z" fill="white"/>
<path d="M196.22 386.435C196.22 386.435 196.22 386.43 196.22 386.425C196.215 386.43 196.215 386.43 196.22 386.435Z" fill="white"/>
<path d="M196.71 388.05C196.705 388.045 196.705 388.04 196.7 388.035C196.705 388.04 196.71 388.045 196.71 388.05Z" fill="white"/>
<path d="M196.67 387.97C196.66 387.95 196.65 387.925 196.635 387.905C196.65 387.93 196.66 387.95 196.67 387.97Z" fill="white"/>
<path d="M196.405 387.31C196.47 387.51 196.545 387.705 196.635 387.89C196.54 387.7 196.465 387.51 196.405 387.31Z" fill="white"/>
<path d="M201.235 381.465C201.485 381.465 201.67 381.485 201.88 381.52L201.94 381.14C201.94 381.14 201.355 380.96 200.585 381.025L200.525 380.82C200.765 380.77 200.945 380.555 200.945 380.3C200.945 380.01 200.71 379.775 200.415 379.775C200.12 379.775 199.885 380.01 199.885 380.3C199.885 380.555 200.065 380.765 200.305 380.82L200.37 381.05C199.555 381.16 198.905 381.48 198.905 381.48L199.02 381.835C199.515 381.67 199.945 381.57 200.33 381.53C200.715 381.485 201.005 381.465 201.235 381.465Z" fill="white"/>
<path d="M196.705 383.395C196.725 383.365 196.745 383.345 196.765 383.32L196.61 383.21L196.365 383.03C196.35 383.05 195.97 383.4 195.665 384.055C195.65 384.035 195.635 384.015 195.62 383.995C195.53 383.895 195.4 383.845 195.24 383.85H195.235C195.135 383.85 195.065 383.815 195.02 383.775C195.065 383.72 195.09 383.645 195.09 383.57C195.09 383.385 194.94 383.235 194.755 383.235C194.57 383.235 194.42 383.385 194.42 383.57C194.42 383.755 194.57 383.905 194.755 383.905C194.785 383.905 194.81 383.9 194.84 383.895C194.925 383.985 195.055 384.065 195.245 384.06C195.345 384.06 195.415 384.085 195.465 384.14C195.52 384.2 195.54 384.29 195.545 384.355C195.325 384.95 195.39 385.69 195.39 385.69L195.92 385.71C195.93 385.44 195.97 384.97 196.105 384.595C196.36 383.865 196.69 383.415 196.705 383.395Z" fill="white"/>
<path d="M205.835 381.91C205.65 381.91 205.5 382.06 205.5 382.245C205.5 382.275 205.505 382.3 205.51 382.33C205.42 382.415 205.34 382.545 205.34 382.735C205.34 382.835 205.315 382.905 205.265 382.955C205.225 382.99 205.17 383.015 205.12 383.025C204.725 382.475 204.24 382.135 204.24 382.135L203.86 382.54C204.145 382.8 204.44 383.125 204.725 383.535C204.92 383.815 205.125 384.18 205.295 384.54L205.805 384.295C205.805 384.295 205.57 383.715 205.24 383.2C205.295 383.18 205.355 383.15 205.405 383.105C205.505 383.015 205.555 382.885 205.55 382.725C205.55 382.62 205.585 382.55 205.625 382.505C205.68 382.55 205.755 382.575 205.83 382.575C206.015 382.575 206.165 382.425 206.165 382.24C206.17 382.055 206.02 381.91 205.835 381.91Z" fill="white"/>
<path d="M204.51 386.51C203.805 386.855 202.645 387.305 201.12 387.52C200.52 387.605 199.94 387.635 199.405 387.635C198.71 387.635 198.095 387.585 197.625 387.525C197.085 387.46 196.665 387.375 196.41 387.315C196.47 387.51 196.545 387.705 196.635 387.895C196.635 387.9 196.64 387.905 196.64 387.91C196.65 387.93 196.66 387.955 196.675 387.975C196.685 387.995 196.695 388.02 196.705 388.04C196.71 388.045 196.71 388.05 196.715 388.055C196.865 388.34 197.05 388.6 197.255 388.83C197.975 389.615 198.71 389.74 198.715 389.745H198.725L198.735 389.75C198.74 389.755 199.39 389.965 200.38 389.965C201.355 389.965 202.305 389.77 203.215 389.38C203.89 389.035 204.525 388.51 204.84 388.045C205.085 387.685 205.26 387.3 205.365 386.9C205.42 386.685 205.465 386.345 205.44 385.985C205.245 386.11 204.93 386.3 204.51 386.51Z" fill="white"/>
<path d="M196.93 383.56C196.91 383.59 196.605 384.02 196.365 384.685C196.185 385.18 196.19 385.905 196.19 385.915C196.19 386.085 196.2 386.255 196.22 386.42C196.22 386.425 196.22 386.425 196.22 386.43C196.22 386.45 196.225 386.47 196.225 386.495C196.24 386.61 196.26 386.73 196.285 386.845C196.635 386.935 198.725 387.42 201.06 387.095C202.525 386.89 203.635 386.46 204.31 386.13C204.87 385.86 205.23 385.61 205.37 385.51C205.23 384.995 204.85 384.19 204.5 383.685C203.495 382.25 202.415 381.885 201.86 381.795C201.65 381.76 201.48 381.74 201.24 381.74C201.015 381.74 200.74 381.76 200.37 381.795C200 381.835 199.585 381.93 199.105 382.095C198.43 382.32 197.82 382.675 197.34 383.12L197.325 383.135C197.25 383.205 197.1 383.345 196.93 383.56ZM203.065 383.23C203.545 383.23 203.935 383.62 203.935 384.1C203.935 384.58 203.545 384.97 203.065 384.97C202.585 384.97 202.195 384.58 202.195 384.1C202.195 383.62 202.585 383.23 203.065 383.23ZM198.945 383.195C199.725 383.195 200.355 383.825 200.355 384.605C200.355 385.38 199.725 386.01 198.945 386.01C198.17 386.01 197.535 385.38 197.535 384.605C197.535 383.825 198.165 383.195 198.945 383.195Z" fill="white"/>
</g>
<defs>
<clipPath id="clip0_25_4">
<rect width="400" height="400" fill="white"/>
</clipPath>
</defs>
</svg>
