<svg width="100" height="100" viewBox="0 0 100 100" fill="none" xmlns="http://www.w3.org/2000/svg">
<path d="M50 100C77.6142 100 100 77.6142 100 50C100 22.3858 77.6142 0 50 0C22.3858 0 0 22.3858 0 50C0 77.6142 22.3858 100 50 100Z" fill="#7FB069"/>
<path d="M72.5121 94.6545C85.9293 87.877 95.8777 75.2332 98.9809 60.0922L80.5152 41.6266L55.0223 64.169L50 72.1428L72.5121 94.6545Z" fill="#709D5C"/>
<path d="M50 72.1427L19.4847 41.6265L24.9605 36.1508L50 61.1906L75.0394 36.1508L80.5152 41.6269L50 72.1427Z" fill="#407BFF"/>
<path d="M50 61.1906L75.0394 36.1508L80.5152 41.6269L50 72.1427V61.1906Z" fill="#2160ED"/>
</svg>
