<svg width="50" height="50" viewBox="0 0 50 50" fill="none" xmlns="http://www.w3.org/2000/svg">
<path d="M25 4.16675C19.4746 4.16675 14.1756 6.36168 10.2686 10.2687C6.36156 14.1757 4.16663 19.4747 4.16663 25.0001C4.16663 30.5254 6.36156 35.8245 10.2686 39.7315C14.1756 43.6385 19.4746 45.8334 25 45.8334C30.5253 45.8334 35.8243 43.6385 39.7314 39.7315C43.6384 35.8245 45.8333 30.5254 45.8333 25.0001C45.8333 19.4747 43.6384 14.1757 39.7314 10.2687C35.8243 6.36168 30.5253 4.16675 25 4.16675Z" fill="#29B6F6"/>
<path d="M35.3645 15.6249L31.4625 35.5478C31.4625 35.5478 31.2948 36.4583 30.1656 36.4583C29.5656 36.4583 29.2562 36.1728 29.2562 36.1728L20.8041 29.1593L16.6687 27.0749L11.3614 25.6635C11.3614 25.6635 10.4166 25.3905 10.4166 24.6093C10.4166 23.9583 11.3885 23.6478 11.3885 23.6478L33.5927 14.827C33.5927 14.827 34.2708 14.5822 34.7656 14.5833C35.0697 14.5833 35.4166 14.7135 35.4166 15.1041C35.4166 15.3645 35.3645 15.6249 35.3645 15.6249Z" fill="white"/>
<path d="M23.9583 31.776L20.3896 35.2906C20.3896 35.2906 20.2344 35.4104 20.0271 35.4156C19.9552 35.4176 19.8781 35.4062 19.799 35.3708L20.8031 29.1572L23.9583 31.776Z" fill="#B0BEC5"/>
<path d="M31.1427 18.9541C30.9666 18.7249 30.6416 18.6832 30.4125 18.8572L16.6666 27.0832C16.6666 27.0832 18.8604 33.2207 19.1948 34.2832C19.5302 35.3468 19.7989 35.3718 19.7989 35.3718L20.8031 29.1582L31.0448 19.6832C31.2739 19.5093 31.3166 19.1832 31.1427 18.9541Z" fill="#CFD8DC"/>
</svg>
